<?xml version="1.0" encoding="utf-8"?>
<!-- Generator: Adobe Illustrator 18.1.1, SVG Export Plug-In . SVG Version: 6.00 Build 0)  -->
<svg version="1.1" id="Your_Icon" xmlns="http://www.w3.org/2000/svg" xmlns:xlink="http://www.w3.org/1999/xlink" x="0px" y="0px"
	 viewBox="-705 -103 1000 1000" enable-background="new -705 -103 1000 1000" xml:space="preserve">
<path d="M-119.1-103C-419.8-103-392,148.3-392,148.3h-91v259h91V897h291.4V407.4H24.2V174.5L73.6-58.3C-22-98.3-119.1-103-119.1-103
	z M-28.2,85.1c0,0-98.7-17.4-121.8,10.6c-34,17-23.1,126.6-23.1,126.6h123.3v111h-123.3v491.8h-146.5V333.3h-91v-111
	c0,0,92.4,0,92.5,0c-8.4,0,4.6-108.6,5.6-118.9c5.2-54.5,45.4-102.5,97.1-120.4c70.8-24.4,135.5-11,205.6,6.5
	C-15.9,21.4-22.1,53.4-28.2,85.1z"/>
</svg>
