<?xml version="1.0" encoding="utf-8"?>
<!-- Generator: Adobe Illustrator 18.1.1, SVG Export Plug-In . SVG Version: 6.00 Build 0)  -->
<svg version="1.1" id="Calque_1" xmlns="http://www.w3.org/2000/svg" xmlns:xlink="http://www.w3.org/1999/xlink" x="0px" y="0px"
	 viewBox="0 0 1000 1000" enable-background="new 0 0 1000 1000" xml:space="preserve">
<g>
	<path fill-rule="evenodd" clip-rule="evenodd" fill="#191717" d="M501,12.7c-276.1,0-500,223.8-500,500
		c0,220.9,143.3,408.3,341.9,474.4c25,4.6,34.2-10.9,34.2-24.1c0-11.9-0.5-51.3-0.7-93.1c-139.1,30.2-168.5-59-168.5-59
		c-22.7-57.8-55.5-73.2-55.5-73.2c-45.4-31,3.4-30.4,3.4-30.4C206,711,232.5,759,232.5,759c44.6,76.4,117,54.3,145.5,41.6
		c4.5-32.3,17.4-54.4,31.7-66.9c-111.1-12.6-227.8-55.5-227.8-247.1c0-54.6,19.5-99.2,51.5-134.2c-5.2-12.6-22.3-63.4,4.8-132.3
		c0,0,42-13.4,137.5,51.3c39.9-11.1,82.7-16.6,125.2-16.8c42.5,0.2,85.3,5.7,125.3,16.8c95.4-64.7,137.4-51.3,137.4-51.3
		c27.2,68.9,10.1,119.7,4.9,132.3c32.1,35,51.5,79.6,51.5,134.2c0,192-117,234.3-228.3,246.7c17.9,15.5,33.9,45.9,33.9,92.6
		c0,66.9-0.6,120.7-0.6,137.2c0,13.3,9,28.9,34.3,24C857.9,920.9,1001,733.6,1001,512.7C1001,236.6,777.1,12.7,501,12.7z"/>
	<path fill="#191717" d="M190.3,730.6c-1.1,2.5-5,3.2-8.6,1.5c-3.6-1.6-5.7-5-4.5-7.5c1.1-2.6,5-3.3,8.6-1.6
		C189.5,724.7,191.6,728.1,190.3,730.6L190.3,730.6z M184.2,726.1"/>
	<path fill="#191717" d="M210.6,753.2c-2.4,2.2-7.1,1.2-10.2-2.3c-3.3-3.5-3.9-8.2-1.5-10.4c2.5-2.2,7-1.2,10.3,2.3
		C212.5,746.3,213.1,751,210.6,753.2L210.6,753.2z M205.8,748.1"/>
	<path fill="#191717" d="M230.3,782c-3.1,2.1-8.1,0.1-11.2-4.3c-3.1-4.4-3.1-9.8,0.1-11.9c3.1-2.1,8-0.2,11.2,4.2
		C233.4,774.5,233.4,779.8,230.3,782L230.3,782z M230.3,782"/>
	<path fill="#191717" d="M257.3,809.8c-2.7,3-8.6,2.2-12.8-1.9c-4.4-4-5.6-9.8-2.8-12.8c2.8-3,8.7-2.2,13,1.9
		C258.9,801.1,260.2,806.8,257.3,809.8L257.3,809.8z M257.3,809.8"/>
	<path fill="#191717" d="M294.6,826c-1.2,3.9-6.8,5.7-12.5,4c-5.7-1.7-9.4-6.3-8.2-10.3c1.2-3.9,6.8-5.8,12.5-4
		C292,817.4,295.8,822,294.6,826L294.6,826z M294.6,826"/>
	<path fill="#191717" d="M335.5,829c0.1,4.1-4.7,7.5-10.6,7.6c-6,0.1-10.8-3.2-10.9-7.3c0-4.2,4.7-7.5,10.7-7.6
		C330.6,821.6,335.5,824.9,335.5,829L335.5,829z M335.5,829"/>
	<path fill="#191717" d="M373.6,822.5c0.7,4-3.4,8.2-9.3,9.3c-5.8,1.1-11.2-1.4-11.9-5.4c-0.7-4.1,3.5-8.3,9.3-9.3
		C367.5,816,372.8,818.4,373.6,822.5L373.6,822.5z M373.6,822.5"/>
</g>
</svg>
