<?xml version="1.0" encoding="utf-8"?>
<!-- Generator: Adobe Illustrator 17.1.0, SVG Export Plug-In . SVG Version: 6.00 Build 0)  -->
<!DOCTYPE svg PUBLIC "-//W3C//DTD SVG 1.1//EN" "http://www.w3.org/Graphics/SVG/1.1/DTD/svg11.dtd">
<svg version="1.1" id="Calque_1" xmlns="http://www.w3.org/2000/svg" xmlns:xlink="http://www.w3.org/1999/xlink" x="0px" y="0px"
	 viewBox="-484 -484 1000 1000" enable-background="new -484 -484 1000 1000" xml:space="preserve">
<g id="XMLID_1_">
	<g>
		<path d="M297.2-359C417.8-359,516-260.9,516-140.3S417.8,78.5,297.2,78.5c-26.8,0-52.9-4.9-77.6-14.3C163.1,113.5,91.3,141,16,141
			c-75.2,0-147.1-27.5-203.7-76.8c-24.7,9.4-50.8,14.3-77.6,14.3C-385.8,78.5-484-19.7-484-140.3S-385.8-359-265.2-359
			c10.4,0,20.6,0.7,30.8,2.2C-176-436.3-84-484,16-484s192.1,47.7,250.4,127.2C276.6-358.3,286.9-359,297.2-359z M453.5-140.3
			c0-86.3-69.9-156.2-156.2-156.2c-21.1,0-41.2,4.3-59.5,11.9C196.3-365.5,113.1-421.5,16-421.5s-180.3,56-221.8,136.9
			c-18.3-7.6-38.3-11.9-59.4-11.9c-86.3,0-156.2,69.9-156.2,156.2S-351.5,16-265.2,16c33.4,0,64.3-10.8,89.7-28.7
			C-129.7,42.6-61.4,78.5,16,78.5s145.7-35.9,191.5-91.2C233,5.2,263.8,16,297.2,16C383.5,16,453.5-54,453.5-140.3z"/>
		<path d="M152.8,382.5c16.5,9.7,22.2,30.8,12.6,47.3c-9.5,16.5-30.6,22.1-47.1,12.6l-35.5-20.5c-9.5,8.2-20.3,14.5-32.3,18.8v40.9
			c0,19.1-15.5,34.4-34.5,34.4s-34.5-15.4-34.5-34.4v-40.9c-12-4.3-22.8-10.6-32.3-18.7l-35.5,20.4c-16.5,9.5-37.6,3.9-47.1-12.6
			c-9.5-16.5-3.8-37.7,12.7-47.3l35.1-20.3c-1.1-6.1-1.9-12.3-1.9-18.8s0.7-12.7,1.9-18.8l-35.1-20.3c-16.5-9.5-22.2-30.7-12.7-47.1
			c9.5-16.6,30.6-22.2,47.2-12.7l35.4,20.5c9.5-8.1,20.3-14.5,32.3-18.8v-40.8C-18.5,186.5-3,171,16,171s34.5,15.4,34.5,34.5v40.8
			c12,4.3,22.7,10.7,32.2,18.7l35.5-20.5c16.5-9.5,37.6-3.9,47.1,12.7c9.4,16.3,3.8,37.5-12.6,47.1l-35.2,20.3
			c1.2,6.1,2,12.3,2,18.8s-0.8,12.7-1.9,18.8L152.8,382.5L152.8,382.5z M50.5,343.5c0-19-15.5-34.5-34.5-34.5s-34.5,15.4-34.5,34.5
			S-3,378,16,378S50.5,362.5,50.5,343.5z"/>
	</g>
	<g>
	</g>
</g>
</svg>
