<?xml version="1.0" encoding="utf-8"?>
<!-- Generator: Adobe Illustrator 17.1.0, SVG Export Plug-In . SVG Version: 6.00 Build 0)  -->
<!DOCTYPE svg PUBLIC "-//W3C//DTD SVG 1.1//EN" "http://www.w3.org/Graphics/SVG/1.1/DTD/svg11.dtd">
<svg version="1.1" id="Calque_1" xmlns="http://www.w3.org/2000/svg" xmlns:xlink="http://www.w3.org/1999/xlink" x="0px" y="0px"
	 viewBox="-484 -484 1000 1000" enable-background="new -484 -484 1000 1000" xml:space="preserve">
<g id="XMLID_1_">
	<g>
		<path d="M237.9-297.3c70.6,51.5,475.8,508.1-63.6,813.3c101.4-197.5,26.2-463.9-149.9-587C36-18,21.4,120.1-56.5,206.8
			c17.6-89.7-26.5-147-26.5-147S-97.5,141-153.6,223c-51.2,74.8-86.7,154.3-20.1,292.9c-212.1-119.5-267.9-232.7-236-387.2
			c23.6-114.1,110.6-207,118-320.9c33,60,36.9,103.3,40.6,166C-146.2-154.8-37.4-326.7-61-484c0,0,198.9,62.5,279.3,367.5
			C265.8-158.8,261.4-245.9,237.9-297.3z"/>
		<path fill="#444444" d="M-173.6,516L-173.6,516c-0.1,0-0.1,0-0.1-0.1C-173.6,515.9-173.6,516-173.6,516z"/>
	</g>
	<g>
	</g>
</g>
</svg>
