<?xml version="1.0" encoding="utf-8"?>
<!-- Generator: Adobe Illustrator 18.1.1, SVG Export Plug-In . SVG Version: 6.00 Build 0)  -->
<svg version="1.1" id="Layer_1" xmlns="http://www.w3.org/2000/svg" xmlns:xlink="http://www.w3.org/1999/xlink" x="0px" y="0px"
	 viewBox="-705 -103 1000 1000" enable-background="new -705 -103 1000 1000" xml:space="preserve">
<g>
	<g>
		<path fill="none" d="M-264.9,581.3l6.2-6.1l21-21c0.2-1.3,0.5-3.9-0.3-7.3c-0.5-2.4-1.6-5.3-3.5-8.4l-30.6,30.6
			C-269.7,573-267.3,577.2-264.9,581.3z"/>
		<path d="M-149.5,446.4l16.1-16.1c12.4-12.4,12.4-32.4,0-44.8l-69.9-69.9c-12.4-12.4-32.4-12.4-44.8,0L-405.5,473
			c-12.4,12.4-12.4,32.4,0,44.8l69.9,69.9c3.1,3.1,6.6,5.3,10.3,6.9l44.6,118.5l69.5-69.5l-6.3-6.3c0,0-23.5,0-25.3-12.6
			c-0.7-4.5-7.3-17.4-15.6-32l6.2-6.2l25.5-25.5l0.5-1.2c0.2-0.5,3.7-9.9-1.9-22.8c-1.1-2.5-2.4-5-4.2-7.7l13.9-13.9
			c39.5,32.2,136.5,92,265.7,39l-36.7-89.5C-64.5,495.6-122.2,466.2-149.5,446.4z M-238,546.9c0.8,3.4,0.5,6,0.3,7.3l-21,21
			l-6.2,6.1c-2.4-4.1-4.8-8.2-7.2-12.3l30.6-30.6C-239.6,541.6-238.6,544.4-238,546.9z"/>
	</g>
	<path d="M-379.3,402.8l52.6-52.6c9-7.2,22.3-4.7,32.8-0.6l25.1-25l-53.7-13.8l-91.7,91.7l9.4,58l27.2-27.2
		C-382.7,418.4-379.3,402.8-379.3,402.8z"/>
	<polygon points="-371.7,563.1 -414.6,520.1 -420.3,514.5 -629.5,723.8 -473.8,879.4 -371.8,563.5 	"/>
	<path d="M-637.1,778.6l108.8,108.8c13,13,34.9,12.3,48.9-1.7l-156-156C-649.4,743.7-650.2,765.6-637.1,778.6z"/>
	<polygon points="-142.6,334.1 -191.2,285.5 -207,301.3 -204.2,304.2 -158.5,349.9 -157.7,349.2 	"/>
	<path d="M7.7,81.4l-174.5,156.7c-16,16-16,42,0,58l12.9,12.9c16,16,42,16,58,0L60.7,134.4c16-16,24.9-33,8.9-49L56.7,72.4
		C40.7,56.4,23.7,65.4,7.7,81.4z"/>
	<rect x="49.2" y="15.4" transform="matrix(0.7071 -0.7071 0.7071 0.7071 11.0105 88.2129)" width="125.5" height="30.8"/>
	<rect x="168.8" y="-87.8" transform="matrix(0.707 0.7072 -0.7072 0.707 22.6334 -148.1798)" width="42.8" height="82"/>
	<path d="M123-13.6c0.8-0.3,1.6-0.8,2.2-1.4c1.7-1.7,2.3-4.4,1.4-6.8c-0.2-0.5-20.2-51.3-25.6-67l68.2,24.7c3.3,1.2,6.9-0.5,8.1-3.8
		c1.2-3.3-0.5-6.9-3.8-8.1L104-101.1c-2.5-1.4-8.8-4.1-13.6-0.3c-5.5,4.4-2.9,12.4-2,15c4.5,13.8,25.5,67,26.4,69.3
		C116.1-13.9,119.8-12.3,123-13.6z"/>
</g>
</svg>
