<?xml version="1.0" encoding="utf-8"?>
<!-- Generator: Adobe Illustrator 17.1.0, SVG Export Plug-In . SVG Version: 6.00 Build 0)  -->
<!DOCTYPE svg PUBLIC "-//W3C//DTD SVG 1.1//EN" "http://www.w3.org/Graphics/SVG/1.1/DTD/svg11.dtd">
<svg version="1.1" id="Calque_1" xmlns="http://www.w3.org/2000/svg" xmlns:xlink="http://www.w3.org/1999/xlink" x="0px" y="0px"
	 viewBox="-488 -488 1000 1000" enable-background="new -488 -488 1000 1000" xml:space="preserve">
<g id="XMLID_1_">
	<g>
		<path d="M466.5-449.1c28,28.5,40.1,70.3,37.3,122c-11.7-4.1-24.1-6.8-37.2-6.8c-2.6,0-5,0.6-7.6,0.8c1.4-36.3-6.5-65-24.5-83.3
			c-16.6-16.8-41.5-25.3-74-25.3c-80.1,0-192.7,50.4-309.9,134.2c49.3,38.8,98.7,83,146.6,131.6c48.3,49,91.6,99,129.6,148.5
			c24.4-35.3,47.1-70.5,65.4-104.8c11.4,10.2,24.7,17.9,39.5,22.7C410.3-69.9,384-29.3,355.1,11.3
			c140.5,197.4,190.3,381.6,111.3,461.8c-25.4,25.8-61.1,38.8-106.1,38.8c-51.1,0-112.3-17.1-178.6-48.2
			c11.1-11,20.1-24.1,26.1-38.8c57.2,26.2,109.6,40.9,152.4,40.9c32.6,0,57.5-8.5,74-25.3c55-55.8,18.9-209.6-107-390.2
			c-38.6,50.6-82.1,101-130,149.6C10.5,389.5-198.9,512-336.1,512c-45,0-80.7-13-106.1-38.8c-52.3-53-50.8-151.5,4.1-277.3
			c25.8-59,62-121.3,106.5-183.8c-44.5-62.5-80.8-124.9-106.6-183.9c-19.4-44.3-31.7-85-37.8-121.7c10.6,3.3,21.7,5.7,33.5,5.7
			c4.6,0,9-0.8,13.5-1.4c6.1,29.8,16.6,62.8,32.4,98.7c22.9,52.6,55,108,93.9,163.9c38.6-50.5,82.1-100.7,129.8-149.2
			c47.9-48.7,97.4-92.8,146.7-131.7C-143.3-391.3-255.8-441.7-336-441.8c-6-16.8-15.3-31.9-27.7-44.1c8.8-1.2,17.8-2.1,27.4-2.1
			c92.9,0,218.7,56.3,348.3,151.2C141.6-431.7,267.5-488,360.3-488C405.4-488,441-474.9,466.5-449.1z M299.1,11.6
			c-38.1-50.5-82.6-102.6-134.2-155c-49.7-50.4-101.4-96-152.9-135.7c-51.5,39.8-103.3,85.3-152.9,135.8
			c-49.7,50.5-94.6,102.9-133.9,155.3c39.3,52.4,84,104.7,133.8,155.2C-91.1,217.8-39.4,263.2,12.2,303
			c51.5-39.7,103.2-85.2,152.9-135.7C215,116.7,259.9,64.2,299.1,11.6z M-25.6,331.1c-49.6-39-99.3-82.3-147.6-131.3
			c-47.7-48.3-91.1-98.6-129.7-149c-38.8,55.9-70.8,111.2-93.7,163.8c-46.1,105.5-51.1,187.9-13.6,225.9
			c16.6,16.8,41.5,25.3,74,25.3C-255.9,465.9-143,415.3-25.6,331.1z"/>
		<path d="M466.5-264.8c25.1,0,45.5,20.6,45.5,46.1c0,25.5-20.3,46.1-45.5,46.1c-25.1,0-45.5-20.6-45.5-46.1
			C421.1-244.2,441.4-264.8,466.5-264.8z"/>
		<path d="M102.9,334.8c25.1,0,45.4,20.6,45.4,46.1c0,25.5-20.3,46.1-45.4,46.1S57.5,406.5,57.5,381
			C57.5,355.5,77.8,334.8,102.9,334.8z"/>
		<path d="M12-126.4c75.3,0,136.4,62,136.4,138.4c0,76.4-61.1,138.4-136.4,138.4s-136.4-62-136.4-138.4
			C-124.4-64.4-63.3-126.4,12-126.4z"/>
		<path d="M-442.5-449.3c25.1,0,45.5,20.6,45.5,46.1c0,25.5-20.3,46.1-45.5,46.1c-25.1,0-45.5-20.6-45.5-46.1
			C-488-428.7-467.7-449.3-442.5-449.3z"/>
	</g>
	<g>
	</g>
</g>
</svg>
