<?xml version="1.0" encoding="utf-8"?>
<!-- Generator: Adobe Illustrator 18.1.1, SVG Export Plug-In . SVG Version: 6.00 Build 0)  -->
<svg version="1.1" id="Calque_1" xmlns="http://www.w3.org/2000/svg" xmlns:xlink="http://www.w3.org/1999/xlink" x="0px" y="0px"
	 viewBox="-779 -103 1000 1000" enable-background="new -779 -103 1000 1000" xml:space="preserve">
<g id="XMLID_1_">
	<g>
		<polygon points="221.2,364.9 161.4,383.3 143,443.1 124.7,383.3 64.8,364.9 124.7,346.6 143,286.8 161.4,346.6 		"/>
		<path d="M193.7,44.2c7.3,7.3,11,16.5,11,27.5s-3.7,20.2-11,27.5l-785.6,785.6c-7.3,7.3-16.5,11-27.5,11c-11,0-20.2-3.7-27.5-11
			l-121-121c-7.3-7.3-11-16.5-11-27.5c0-11,3.7-20.2,11-27.5L17.8-76.7c7.3-7.3,16.5-11,27.5-11s20.2,3.7,27.5,11L193.7,44.2z
			 M-68.3,250.7l179-179L45.3,6.3l-179,179L-68.3,250.7z"/>
		<polygon points="-169.8,-26 -229.6,-7.7 -247.9,52.2 -266.3,-7.7 -326.1,-26 -266.3,-44.3 -247.9,-104.2 -229.6,-44.3 		"/>
		<polygon points="-287,91.3 -406.8,127.9 -443.4,247.7 -480.1,127.9 -599.8,91.3 -480.1,54.6 -443.4,-65.2 -406.8,54.6 		"/>
		<polygon points="-560.7,-26 -620.6,-7.7 -638.9,52.2 -657.2,-7.7 -717.1,-26 -657.2,-44.3 -638.9,-104.2 -620.6,-44.3 		"/>
	</g>
	<g>
	</g>
</g>
</svg>
