<?xml version="1.0" encoding="utf-8"?>
<!-- Generator: Adobe Illustrator 18.1.1, SVG Export Plug-In . SVG Version: 6.00 Build 0)  -->
<svg version="1.1" id="Your_Icon" xmlns="http://www.w3.org/2000/svg" xmlns:xlink="http://www.w3.org/1999/xlink" x="0px" y="0px"
	 viewBox="-705 -103 1000 1000" enable-background="new -705 -103 1000 1000" xml:space="preserve">
<g>
	<path d="M152.7,515.1c-11.3-0.2-21.7-5.3-28.2-14c-0.2,14.5-10,28.3-25.4,33.6c-19.3,6.6-39.9-2.7-46-20.7c-2-5.8-2-11.8-0.8-17.5
		c0,0,0,0,0,0c-1.9,12.9-11.2,24.6-25.1,29.3C8,532.3-12.6,523-18.7,505c-3.5-10.2-1.4-20.8,4.4-29.5c-3.8,3.5-8.4,6.4-13.7,8.2
		c-19.3,6.5-39.9-2.7-46-20.7c-4.8-14.3,1-29.6,13.2-38.7c-17.7,3.5-35.3-5.6-40.8-21.9c-6.1-18,4.6-37.9,23.8-44.4
		c4.1-1.4,8.3-1.9,12.3-2c-12.9-1.7-24.1-9.9-28.4-22.3c-6.1-18,4.6-37.9,23.8-44.4c9.4-3.2,19.1-2.6,27.2,0.9
		c-4.4-3.7-7.8-8.4-9.8-14.1c-6.1-18,4.6-37.9,23.8-44.4c14.9-5.1,30.4-0.6,39.6,9.9c-4-17.1,6.3-35.2,24.5-41.4
		c2.9-1,5.7-1.5,8.6-1.8c-3.9-12.3-6.2-19.7-6.2-19.7S31.8,9.4,12.9-31.8C-6-73-35.2-83.4-47.2-47.3c-12,36.1-2.7,84.4-0.9,134.9
		c4.9,134.5-43,122-43,122s-21.8-10-34.7-26.8c-15.2-19.6-22.8-48.5-37.4-81.4c-34.6-77.5-70-134.8-89.2-172.5
		c-32.8-64.6-91.7-62.9-84.6,3.4c3,27.9,36.2,97.5,44.9,115.8c5.9,12.3,44.7,100.5,50.3,117.9c2.8,8.7,21.3,44.5,25.2,64.2
		c3.8,19.7-7.1,23.1-7.1,23.1s-63.2-99.3-85.6-139.8S-381.4,3.4-396.9-31s-54.1-52.4-73.9-32.6s-12,53.3,20.6,118.6
		s90.3,176.2,113.4,214.8c27.2,45.5,24.9,69.6,24.9,88.5s-27.5,15.5-61-18s-128-148.6-159.8-180.4s-49.8-67.9-92.8-51.5
		c-21.6,8.2-34.4,29.2-16.3,77.3c18.1,48.1,104.8,153.8,158.9,207.9c54.1,54.1,101.4,127.1,130.6,156.4s70.4,110,46.4,110
		c-24.1,0-108.2,8.6-163.2,8.6s-90.2,16.3-113.4,39.5s-3.4,72.2,43,72.2c15.5,0,29.2-10.3,56.7-10.3s137.5,12,137.5,12
		s183.9,25.8,223.4,43s201,56.7,201,56.7L244,646c0,0-65.3-99.7-84.2-118.6C158.1,525.8,155.7,521.4,152.7,515.1z"/>
</g>
</svg>
