<?xml version="1.0" encoding="utf-8"?>
<!-- Generator: Adobe Illustrator 17.1.0, SVG Export Plug-In . SVG Version: 6.00 Build 0)  -->
<!DOCTYPE svg PUBLIC "-//W3C//DTD SVG 1.1//EN" "http://www.w3.org/Graphics/SVG/1.1/DTD/svg11.dtd">
<svg version="1.1" id="Calque_1" xmlns="http://www.w3.org/2000/svg" xmlns:xlink="http://www.w3.org/1999/xlink" x="0px" y="0px"
	 viewBox="-484 -484 1000 1000" enable-background="new -484 -484 1000 1000" xml:space="preserve">
<g id="XMLID_1_">
	<g>
		<path d="M324-228.3C241.3-73.5,405.6-48,405.6,136.5c0,140-89.1,323.5-310.7,362.7c51.9-24.4,72.1-67.9,73.2-118.8
			c2.1-74.3-57.3-138.9-147.4-108.2C-71.6,303-145.8,218.1-105.5,85.6c-154.8,136.8-124.1,355.2,19.1,430.5
			c-340.4-76.4-324.5-368-230.1-500.5C-245.4-84.1-144.7-135-80-202.8c59.4-61.5,87-138.9,33.9-281l0,0
			C189.3-344.9,157.5-159.4,75.8-78.8C37.7-40.6,36.6,10.3,80.1,36.8C134.2,68.6,207.4,20.9,201-49.1
			C191.4-155.1,225.4-219.8,324-228.3z"/>
	</g>
	<g>
	</g>
</g>
</svg>
