<?xml version="1.0" encoding="utf-8"?>
<!-- Generator: Adobe Illustrator 18.1.1, SVG Export Plug-In . SVG Version: 6.00 Build 0)  -->
<svg version="1.1" id="Your_Icon" xmlns="http://www.w3.org/2000/svg" xmlns:xlink="http://www.w3.org/1999/xlink" x="0px" y="0px"
	 viewBox="-705 -103 1000 1000" enable-background="new -705 -103 1000 1000" xml:space="preserve">
<path d="M297-85.6L279.7-103l-543.4,543.4c-4.9-4.2-9.9-8.1-15.2-11.7l47.8-82.7l-21.3-12.3l-47.7,82.7c-5.8-2.8-11.7-5.2-17.6-7.3
	l44.5-166.2l-23.7-6.3l-44.6,166.2c-6.3-1.2-12.6-2-18.9-2.5v-95.5H-385v95.5c-6.3,0.5-12.6,1.3-18.9,2.5l-44.5-166.2l-23.7,6.3
	l44.5,166.2c-6,2.1-11.9,4.5-17.6,7.3l-47.7-82.7l-21.3,12.3l47.8,82.7c-5.2,3.5-10.3,7.4-15.2,11.6l-121.7-121.7l-17.4,17.4
	l121.8,121.7c-4.2,4.9-8.1,9.9-11.7,15.1l-82.7-47.7l-12.3,21.3l82.7,47.7c-2.8,5.8-5.3,11.7-7.4,17.6l-166.2-44.5L-703,491
	l166.2,44.5c-1.2,6.3-2,12.6-2.5,18.9h-95.5V579h95.5c0.5,6.4,1.3,12.7,2.5,18.9L-703,642.5l6.3,23.7l166.2-44.5
	c2.1,6,4.6,11.9,7.4,17.6l-82.7,47.7l12.3,21.3l82.7-47.7c3.5,5.2,7.5,10.2,11.7,15.1l-112.6,112.6l17.3,17.4l112.7-112.7
	c4.8,4.2,9.9,8.1,15.1,11.7l-47.8,82.7l21.3,12.3l47.7-82.7c5.8,2.8,11.7,5.3,17.6,7.3l-44.5,166.2l23.7,6.4l44.5-166.2
	c6.3,1.2,12.6,2,18.9,2.5v95.5h24.6v-95.5c6.3-0.5,12.7-1.3,18.9-2.5L-297,897l23.7-6.4l-44.5-166.2c6-2.1,11.9-4.6,17.6-7.4
	l47.7,82.7l21.3-12.3l-47.8-82.7c5.2-3.5,10.3-7.4,15.2-11.7L-142,814.9l17.4-17.4l-121.8-121.7c4.2-4.9,8.1-9.9,11.7-15.1
	l82.7,47.7l12.3-21.3l-82.7-47.8c2.8-5.8,5.3-11.7,7.4-17.6l166.2,44.5l6.4-23.7L-208.7,598c1.2-6.3,2-12.6,2.4-18.9h95.5v-24.6
	h-95.5c-0.5-6.3-1.3-12.7-2.5-18.9L-42.5,491l-6.3-23.7l-166.2,44.5c-2.1-6-4.6-11.9-7.4-17.6l82.7-47.7l-12.3-21.3l-82.7,47.7
	c-3.5-5.2-7.5-10.3-11.7-15.1L297-85.6z"/>
</svg>
