<?xml version="1.0" encoding="utf-8"?>
<!-- Generator: Adobe Illustrator 18.1.1, SVG Export Plug-In . SVG Version: 6.00 Build 0)  -->
<svg version="1.1" id="Calque_1" xmlns="http://www.w3.org/2000/svg" xmlns:xlink="http://www.w3.org/1999/xlink" x="0px" y="0px"
	 viewBox="-705 -103 1000 1000" enable-background="new -705 -103 1000 1000" xml:space="preserve">
<g id="Captions">
</g>
<g id="Your_Icon">
	<path d="M66.8,600.9c2.4-2.4,4.9-4.9,4.9-7.3c51,48.5,99.6,99.5,148.1,148c9.7,7.3,19.4,12.1,31.5,12.1c24.4,0,43.8-19.4,43.8-43.6
		c0-9.7-4.9-21.8-12.3-29.2c-9.6-9.7-19.4-19.4-29-29.1c26.7-21.9,41.3-53.3,41.3-87.4c0-63.1-48.6-111.6-111.7-111.6
		c-34,0-65.5,14.5-87.4,41.2c-29.2-29.1-58.3-58.2-85-87.4c-48.6-38.9-94.6-80.1-140.8-121.4C3.7,202.8,134.8,122.7,268.3,40.2
		C100.8,74.2-61.8,139.8-205,234.4C-345.8,139.8-510.8,74.2-678.4,40.2c133.6,82.5,267.1,162.6,400.6,245.2
		c-48.6,41.2-94.7,82.5-140.8,121.4c-29.2,29.2-58.3,58.3-87.4,87.4c-21.8-26.7-53.3-41.2-87.3-41.2c-60.7,0-111.7,48.5-111.7,111.6
		c0,34,17,65.5,43.6,87.4c-9.6,9.8-19.4,19.4-29,29.1c-9.7,7.4-14.5,19.5-14.5,29.2c0,24.3,19.4,43.7,43.6,43.7
		c12.3,0,24.4-4.8,31.6-12.1c48.6-48.5,99.5-99.5,148-148c2.5,2.4,4.9,4.9,7.4,7.2c4.9,4.9,9.6,7.2,17,7.2c17,0,26.6-12.1,26.6-26.7
		c0-7.3-2.4-14.6-7.2-19.4c-2.4-2.4-2.4-4.9-4.9-7.3c9.7-9.7,19.4-19.4,31.5-31.6c68-60.6,138.4-121.3,206.4-182
		c70.4,60.7,138.3,121.3,208.7,182c9.7,12.2,19.4,21.9,31.5,31.6c-2.4,2.4-4.7,4.9-7.2,7.3c-4.9,4.9-7.3,12.1-7.3,19.4
		c0,14.5,12.1,26.7,26.7,26.7C54.7,608.1,62,605.8,66.8,600.9 M134.8,533c29.1,29.1,58.1,58.2,87.4,87.4
		c12.1-12.2,19.4-26.7,19.4-43.7c0-34.1-29.2-63.1-63.1-63.1C161.5,513.5,146.9,520.8,134.8,533 M-542.4,533
		c-12.3-12.1-29.2-19.4-46.2-19.4c-33.9,0-60.6,29-60.6,63.1c0,17,4.8,31.5,17,43.7C-603.1,591.2-571.6,562.1-542.4,533"/>
</g>
</svg>
