<?xml version="1.0" encoding="utf-8"?>
<!-- Generator: Adobe Illustrator 18.1.1, SVG Export Plug-In . SVG Version: 6.00 Build 0)  -->
<svg version="1.1" id="Calque_1" xmlns="http://www.w3.org/2000/svg" xmlns:xlink="http://www.w3.org/1999/xlink" x="0px" y="0px"
	 viewBox="-705 -103 1000 1000" enable-background="new -705 -103 1000 1000" xml:space="preserve">
<g id="Your_Icon">
	<path d="M-102,405.8L59.6,244.1l81.9,81.9l90.9-3.1L106.6,197.1L80.6,171L226.8,24.8c18,2.5,36.8-2.9,50.6-16.7
		c23.4-23.4,23.4-61.3,0-84.7c-23.4-23.4-61.3-23.4-84.7,0C178.9-62.8,173.5-44,176-26L29.7,120.2l-26.1-26L-122.2-31.7l-3.1,90.9
		l81.9,81.9L-205,302.8l-161.7-161.7l81.9-81.9l-3.1-90.9L-413.7,94.1l-26.1,26.1L-586-26.1c2.5-18-2.9-36.8-16.7-50.6
		c-23.4-23.4-61.3-23.4-84.7,0c-23.4,23.4-23.4,61.3,0,84.7c13.8,13.8,32.7,19.2,50.6,16.7L-490.6,171l-26,26l-125.9,125.9l91,3.1
		l81.9-81.9l161.6,161.7l-371.9,371.9l-7.6,110.6l427.6-434.4l47.3-48l7.6-7.7l47.2-48L2.7,187.2l11,11l-162.9,160.4l-48.1,47.3
		l-7.6,7.5l-48.1,47.3l-434.4,427.6l110.5-7.6L-205,508.7l371.9,371.9l110.6,7.6l-434.4-427.6l6.8-6.8l427.6,434.4l-7.7-110.6
		L-102,405.8z M-260.7,358.5l-162.9-160.4l11-11l160.4,163L-260.7,358.5z"/>
</g>
</svg>
