<?xml version="1.0" encoding="utf-8"?>
<!-- Generator: Adobe Illustrator 17.1.0, SVG Export Plug-In . SVG Version: 6.00 Build 0)  -->
<!DOCTYPE svg PUBLIC "-//W3C//DTD SVG 1.1//EN" "http://www.w3.org/Graphics/SVG/1.1/DTD/svg11.dtd">
<svg version="1.1" id="Calque_1" xmlns="http://www.w3.org/2000/svg" xmlns:xlink="http://www.w3.org/1999/xlink" x="0px" y="0px"
	 viewBox="-484 -484 1000 1000" enable-background="new -484 -484 1000 1000" xml:space="preserve">
<g id="XMLID_1_">
	<g>
		<path d="M499.3-233.8c21.5,33.9,22.3,75.3,2.1,122.9C484-69.8,454.1-27.1,412.3,16.3c41.5,43.5,71.2,86.3,88.5,127.1
			c20.2,47.7,19.5,89-2.1,122.9c-22.2,34.1-61.8,55.3-117.7,63.5c-48.1,7-104.1,4.9-167.2-6.4c-20.9,54.4-47.1,99.1-78,133
			C99.8,496,59.4,516,15.8,516c-43.8,0-84.1-20-119.9-59.5c-30.8-34-56.9-78.6-77.7-132.6c-63,10.7-119.2,12.5-167.5,5.5
			c-56.3-8.1-95.8-29.5-117.3-63.5c-21.6-33.8-22.5-75.1-2.5-122.6c17.1-40.8,47.1-83.4,89.2-127c-42.1-43.5-72.2-86.2-89.5-127.2
			c-20.1-47.7-19.4-89,2.1-122.9c21.7-34,61.3-55.3,117.8-63.3c48.5-6.9,104.6-5,167.7,5.8c20.5-54.1,46.5-98.8,77.4-132.9
			C-68.4-463.9-28-484,15.8-484c43.6,0,84.1,20,120.1,59.5c30.9,33.9,57.2,78.5,78.1,132.8c63-10.4,119.2-12.2,167.7-5.3
			C438-289.1,477.6-267.8,499.3-233.8z M438.2-127.8c15.4-32,16.7-57.1,4.2-76.8c-12.2-18.9-37.9-30.6-76.1-34.6
			c-37.5-4-82.1-1.2-132.7,8.1c11.2,38.6,19.5,79.8,24.7,122.7C295.8-83.7,331.2-57,363.8-29C398.4-63.6,423.3-96.8,438.2-127.8z
			 M441.8,237.1c12.4-19.3,11.1-44.2-4.2-76.2c-14.9-31.1-39.7-64.4-73.9-99.1c-32,27.7-67.5,54.7-106,80.3
			c-5.3,41.8-13.4,82.6-24.3,121.7c35.5,6.8,68.1,10.2,97.1,10.2c12.4,0,24.3-0.7,35.5-1.9C404,267.9,429.5,256.1,441.8,237.1z
			 M314,16.5c-14.5-12.2-30.7-24.8-48.5-37.9c0.6,13.3,0.8,25.8,0.8,37.2c0,12.5-0.2,25.7-0.8,39.4c6-4.6,11.9-9.1,17.7-13.5
			C293.9,33.5,304.2,25,314,16.5z M192.7,15.8c0-33-1.2-62.9-3.7-89.2c-27-16-55.5-32-85-47.9c-28.1-14.1-57.6-28-87.7-41.2
			c-30.1,13.1-59.7,27-88,41.4c-31.5,16.7-60,32.9-84.7,48c-2.5,25.7-3.7,55.6-3.7,88.9c0,33.3,1.3,63.4,3.8,89.4
			c22.8,14.3,50.9,30.4,83.9,48.1c28.9,15.3,58.7,29.4,88.8,41.9c30.7-12.8,60.3-26.9,88.3-41.9c31.1-16.3,59.4-32.3,84.4-47.7
			C191.4,79.3,192.7,49.1,192.7,15.8z M165.3,247.8c4.5-17.7,8.6-36.7,12.3-57.1c-11.6,6.3-23.6,12.8-35.9,19.1
			c-13.2,7-25.9,13.4-37.9,19.1C124.9,236.3,145.4,242.6,165.3,247.8z M177.7-157.9c-3.4-19.3-7.6-38.6-12.4-57.6
			c-19.6,5.4-40.2,11.9-61.6,19.1c13.5,6.6,25.8,12.8,36.9,18.6C153.4-171.2,165.8-164.6,177.7-157.9z M87.6,416
			c22.7-27,42.4-62.9,58.5-106.9C102.5,298.1,59,284,16.3,266.8c-42.6,17-86.2,31.2-129.9,42.3c15.9,44.1,35.3,80.1,57.8,107
			C-9.8,471.2,41.2,471.2,87.6,416z M146.1-276.6c-16.1-44.1-35.8-80.1-58.5-107.2c-46.4-55.5-97.3-55.5-143.5,0
			c-22.6,27.2-42.2,63-58.3,106.6c42.3,11.3,86.1,25.6,130.5,42.6C62-252.3,105.5-266.3,146.1-276.6z M-71.8,228.9
			c-13.5-6.4-26.1-12.9-37.7-19.3c-11.9-5.8-23.9-12.1-35.8-18.7c3.3,18.9,7.4,38,12.2,56.9C-113.4,242.5-92.9,236.2-71.8,228.9z
			 M-108.4-177.9c11.5-6.2,23.7-12.4,36.3-18.4c-20.4-7-40.7-13.4-60.7-19.1c-4.9,18.6-9.1,37.8-12.7,57.4
			C-133.8-164.6-121.3-171.2-108.4-177.9z M-225.8-109.4c5-41.7,13.1-82.8,24.3-122.6c-34.8-6.2-66.9-9.4-95.5-9.4
			c-13,0-25.5,0.6-37.2,1.9c-38.8,4.3-63.7,15.7-76.2,35c-12.8,19.6-11.5,44.7,3.9,76.6c15.1,31.2,40.2,64.3,74.7,98.8
			C-300-56.7-264.4-83.6-225.8-109.4z M-201.5,263.6c-11.1-39-19.3-79.6-24.3-121.2c-38.7-25.8-74.4-52.9-106.6-80.8
			c-34.1,34.4-58.9,67.5-73.8,98.7c-15.3,32-16.5,56.8-3.8,76c12.6,19.8,37.4,31.3,75.9,35.4C-296.6,275.7-252.1,273-201.5,263.6z
			 M-233,54.7c-0.5-12.5-0.8-25.5-0.8-39c0-12.7,0.2-25.1,0.6-37.3C-250.7-9.1-267,3.6-282.1,16.3C-267.3,29-250.9,41.8-233,54.7z"
			/>
	</g>
	<g>
	</g>
</g>
</svg>
