<?xml version="1.0" encoding="utf-8"?>
<!-- Generator: Adobe Illustrator 18.1.1, SVG Export Plug-In . SVG Version: 6.00 Build 0)  -->
<svg version="1.1" id="Layer_1" xmlns="http://www.w3.org/2000/svg" xmlns:xlink="http://www.w3.org/1999/xlink" x="0px" y="0px"
	 viewBox="-739.4 -103 1000 1000" enable-background="new -739.4 -103 1000 1000" xml:space="preserve">
<path d="M-210.5,290.7c-1.7,4.5-2.8,9.1-3.2,13.8c-0.5,5.2-0.4,10.4,0.6,15.6c0.6,3.1,1.3,6.2,2.4,9.2c5.1,13.9,15.4,25,28.9,31.2
	c7.3,3.4,15.1,5.1,23.1,5.1c10,0,19.5-2.8,27.8-7.6c4.5-2.6,8.6-5.8,12.3-9.6c3.3-3.4,6.1-7.2,8.4-11.4c0.7-1.2,1.4-2.4,2-3.7
	c0,0,110.8-241,111-241.5c0.2-0.5,3.3-9.7,4-13.4c4.4-24.3-7.8-49.4-31.3-60.2c-7.3-3.4-15.1-5.1-23.1-5.1c-16.9,0-32.6,7.8-43,20.5
	c-2.9,3.6-5.5,7.5-7.5,11.8c0,0,0-0.1,0-0.1l-0.1,0.1c0,0,0,0,0,0.1l-111,241.4C-209.7,288-210,289.3-210.5,290.7z"/>
<path d="M-160.6,25.3c2.4,2.4,3.9,5.4,5,8.8c2.6,8,2.2,18.2,0,28.6c-1.1,5.3-2.6,10.5-4.4,15.5c-0.7,1.9-1.4,3.8-2.1,5.6
	c-1.1,2.8-2.6,5.9-4.3,9.3c-15,29.8-53.7,79.8-144.6,82.8c0,0-0.1,0-0.2,0l-37.9,78.9c23.7,5.6,65.8,18.8,102.3,47.3l123.5-268.6
	c2-4.4,3.2-8.9,4-13.4c4.3-24.3-7.8-49.5-31.3-60.2c-7.3-3.4-15.1-5.1-23.1-5.1c-16.9,0-32.6,7.8-43,20.5c-3,3.6-5.5,7.5-7.5,11.8
	c0,0,0-0.1,0.1-0.1l-0.1,0.1l0,0.1l-15.6,33.9h75.3L-160.6,25.3z"/>
<path d="M-306.7,21.2h13.5h22.7l20.9-45.5c2-4.4,3.2-8.9,4-13.4c4.3-24.3-7.8-49.4-31.3-60.2c-7.4-3.4-15.1-5.1-23.1-5.1
	c-16.9,0-32.6,7.8-43,20.5c-2.9,3.6-5.5,7.5-7.5,11.8c0,0,0,0,0,0.1l-42.1,91.8h46.1H-306.7z"/>
<polygon points="-249.5,-24.4 -249.5,-24.5 -249.5,-24.4 -249.6,-24.3 "/>
<polygon points="-9.8,185.4 -9.8,185.4 -9.8,185.4 "/>
<polygon points="-115.8,349.5 -115.8,349.5 -115.8,349.5 "/>
<polygon points="-115.8,349.4 -115.8,349.4 -115.8,349.5 "/>
<path d="M86.5,229.8c0-6.2-3.5-19.2-3.6-19.3C75,189.3,54.8,174.2,31,174.2c-5,0-9.8,0.9-14.4,2.1c-8,2.2-15.3,6.1-21.5,11.3
	c-7.2,6.2-12.8,14.1-16.2,23.2c0,0.1-0.1,0.3-0.1,0.4l-69.4,149.9h0c-2.1,4.5-3.1,9.1-3.3,13.8c-0.1,1.7,0,3.3,0.1,4.9
	c1.1,13,8.9,25.2,21.6,31c6,2.8,12.6,3.6,18.9,3c8.3-0.9,16.3-4.3,22.4-10c2.9-2.7,5.4-6,7.3-9.6l36-77.9L37.8,328l2.5-5.4L2.8,404
	l-0.1,0.1c-0.6,1.3-1.4,2.6-2.1,3.9c-1.5,2.8-3.3,5.5-5.2,8c-3.9,5.2-8.6,9.7-13.8,13.4c-10.1,7.3-22.1,11.8-34.9,12.5
	c-1.1,0.1-2.2,0.2-3.3,0.2h0c-9.4,0-18.6-2-27.2-6c-12.9-6-22.8-15.7-29.4-27.2c-3.1-5.6-5.4-11.6-6.8-17.8c-0.5-2.3-1-4.7-1.2-7.1
	c-4.3,2.2-8.7,4.1-13.4,5.5c-7.8,2.4-15.9,3.7-24.3,3.7c0,0,0,0,0,0c-9.6,0-16.1-1.7-25.1-5c5.1,16.8,8.3,35.3,8.3,56.3v105.3h-27.8
	V444.6c0-25.2-7.9-46.6-16-64.8c-37.9-85.5-146.3-100.2-151.8-100.9l-19.1-2.4l61.5-128h8.8c2.3,0,4.3-0.3,6.5-0.3
	c5.4-0.2,10.7-0.3,15.7-0.8c53-5.5,82-30.2,97.4-51.4c1.3-1.8,2.5-3.7,3.7-5.5c2.7-4.3,5-8.4,6.9-12.5c2.2-4.6,3.9-9.1,5.2-13.1
	c1.9-6.3,3-11.7,3.3-15.8h-229.8c-27.5,0-51.5,14.6-65,36.4c-3.1,5.1-5.7,10.6-7.6,16.3L-556,256.6l-3.7,8
	c-3.6,8.8-5.6,18.4-5.6,28.5c0,13.8,3.7,26.8,10.1,37.9l7.8,11.2L-370,577.1V897h333.3v0h27.8l0-236.1l88.2-179.6
	c1.2-2.2,2.4-4.5,3.4-6.9c2.3-5.9,3.7-12.4,3.8-19.1C86.5,455,86.5,229.8,86.5,229.8z"/>
</svg>
