<?xml version="1.0" encoding="utf-8"?>
<!-- Generator: Adobe Illustrator 18.1.1, SVG Export Plug-In . SVG Version: 6.00 Build 0)  -->
<svg version="1.1" id="Layer_1" xmlns="http://www.w3.org/2000/svg" xmlns:xlink="http://www.w3.org/1999/xlink" x="0px" y="0px"
	 viewBox="-705 -103 1000 1000" enable-background="new -705 -103 1000 1000" xml:space="preserve">
<path d="M-376.1,358.7c6.3,52.6,29.6,103.5,69.8,143.9c40.3,40.4,91.1,63.8,143.7,70.3l-4,137.1l-137,3.5
	c-6.3-52.5-29.6-103.5-69.9-143.9c-40.3-40.4-91.1-63.8-143.6-70.3l3.9-137L-376.1,358.7L-376.1,358.7z M295-101.6L120.7-40.5
	l-452.4,451.1c11.7,25,27.9,48.5,48.5,69.1c18.8,19,40,34.2,62.7,45.6L233.4,72.6L295-101.6L295-101.6z M-601,791.7
	c23.8,23.8,23.7,62.4-0.1,86.1c-23.8,23.8-62.4,23.7-86.1-0.1c-23.7-23.8-23.7-62.4,0.1-86.1C-663.3,767.8-624.8,767.9-601,791.7
	L-601,791.7z M-556.8,801.8l199.3-158.5c-10.5-18.1-23.4-35.2-38.9-50.7c-17.3-17.3-36.4-31.4-56.8-42.5L-611,747.5
	c12,4.5,23.2,11.6,33,21.3C-568.4,778.5-561.4,789.8-556.8,801.8z"/>
</svg>
