<?xml version="1.0" encoding="utf-8"?>
<!-- Generator: Adobe Illustrator 18.1.1, SVG Export Plug-In . SVG Version: 6.00 Build 0)  -->
<svg version="1.1" id="Layer_1" xmlns="http://www.w3.org/2000/svg" xmlns:xlink="http://www.w3.org/1999/xlink" x="0px" y="0px"
	 viewBox="-705 -103 1000 1000" enable-background="new -705 -103 1000 1000" xml:space="preserve">
<path fill="none" stroke="#000000" stroke-width="40" stroke-miterlimit="10" d="M-245,342l85,185c15,35-10,70-45,70h-350"/>
<path fill="none" stroke="#000000" stroke-width="40" stroke-miterlimit="10" d="M-505,47l205-55c30-10,60,0,85,15l195,145
	c20,15,35,35,40,60l10,55c10,45,50,80,100,80h165"/>
<path d="M-10,222l-180,145v215l-140-195c-30-40-25-100,15-135L-90,62l85,60L-10,222z"/>
<circle cx="95" cy="-3" r="100"/>
<polygon points="-410,897 -215,697 -355,697 -495,842 "/>
<g>
	<path d="M-355,187l55-40h-405v50h335C-365,192-360,192-355,187z"/>
	<path d="M-430,347h-275v50h290C-425,382-425,362-430,347z"/>
	<path d="M-410,247h-295v50h280C-425,277-415,262-410,247z"/>
</g>
</svg>
