<?xml version="1.0" encoding="utf-8"?>
<!-- Generator: Adobe Illustrator 18.1.1, SVG Export Plug-In . SVG Version: 6.00 Build 0)  -->
<svg version="1.1" id="Layer_9" xmlns="http://www.w3.org/2000/svg" xmlns:xlink="http://www.w3.org/1999/xlink" x="0px" y="0px"
	 viewBox="-705 -103 1000 1000" enable-background="new -705 -103 1000 1000" xml:space="preserve">
<g>
	<path d="M50.6,26.4c-50.8,5-81.3,43.8-88,53.2l-64.7,77.6l-30.3-22.2l-42.2,57.4c-156.6-79.2-352-36.2-459.4,109.9
		c-119.7,162.8-84.8,391.7,78,511.4s391.7,84.8,511.4-78C57.3,597.4,47.2,411.1-58.1,284.9l45.5-61.9l-39.2-28.8l63.1-75.8l1.8-2.4
		c0.2-0.2,17.8-25.3,44-27.7c19.2-1.8,40.8,9.1,63.9,32.2l44-44C128,39.4,89.4,22.5,50.6,26.4z"/>
	<path d="M93.6-4l-30-60.1L35.7-50.2L66.9,12C74.8,5.2,83.8-0.2,93.6-4z"/>
	<path d="M174-85.7l-30.7-5.1l-13.4,80.5c10.7,0.3,21,2.3,30.6,6L174-85.7z"/>
	<path d="M203.4,28.6l76.2-91.4l-23.9-19.9L181.3,6.6C189.8,12.7,197.3,20.1,203.4,28.6z"/>
	<path d="M215.5,54.5c3.5,0,5.4,15.6,5.4,31.1H295V54.5H215.5z"/>
	<path d="M197.1,145.1l78.4,44.8l15.4-27l-77.1-44.1C209.7,128.5,204,137.3,197.1,145.1z"/>
	<path d="M144.1,174.8l48.3,72.4l25.9-17.3l-44.1-66.2C165,169.1,154.9,172.9,144.1,174.8z"/>
	<path d="M77.1,256.9h31.1v-82c0-1.9-15.6-5.7-31.1-11.2V256.9z"/>
	<path d="M-8,180.9l22,22L64.9,152c-7.8-7-14.4-15.3-19.5-24.6L-8,180.9z"/>
</g>
</svg>
