<?xml version="1.0" encoding="utf-8"?>
<!-- Generator: Adobe Illustrator 18.1.1, SVG Export Plug-In . SVG Version: 6.00 Build 0)  -->
<svg version="1.1" id="Calque_1" xmlns="http://www.w3.org/2000/svg" xmlns:xlink="http://www.w3.org/1999/xlink" x="0px" y="0px"
	 viewBox="-194 -104 1000 1000" enable-background="new -194 -104 1000 1000" xml:space="preserve">
<g id="XMLID_1_">
	<g>
		<path d="M792.2,129.8c39,60.5-6.8,155.3-108.4,251.4c99.7,95.1,144.4,188.6,105.7,248.6c-38.7,59.8-151.4,72.2-293.1,42.8
			C454,798,385.3,879.8,307.6,879.8c-77.8,0-146.4-82.1-188.8-207.7c-143.2,30.2-257.3,18.1-296.3-42.2
			c-38.8-60,6-153.7,105.7-248.9c-101.7-96-147.4-190.7-108.3-251.2C-141,69.2-25.8,57.2,118.4,88
			c42.4-125.9,111.3-208.2,189.2-208.2c77.8,0,146.5,82,188.9,207.7C639.4,57.5,753.3,69.6,792.2,129.8z M653,353.5
			c87.6-80.4,128.6-156.4,98.6-202.8c-29.8-46.1-123.1-52.6-243.8-25.6c11.9,43,21.1,89.9,26.5,140
			C578.7,293.7,618.3,323.5,653,353.5z M749,609c29.7-45.8-10.5-120.7-96.2-200.1c-34.8,29.8-74.7,59.3-119,87.7
			c-5.6,49.3-14.2,96.1-26,138.6C627.3,661.6,719.5,654.8,749,609z M621,381.3c-24.9-20.8-51.7-41.6-82-62.2
			c1.1,19.9,1.9,40.1,1.9,60.7c0,21.3-0.8,42.1-2.1,62.7C568.8,422.3,596.2,401.7,621,381.3z M494.2,379.8c0-31.6-1.3-62.4-3.8-92.2
			c-29.1-17.9-59.9-35.4-92.5-52.1c-31.1-16.1-62-30.1-92.6-43.2c-30.1,13-60.7,27.4-91.4,43.2c-31,15.9-60.6,32.6-88.5,49.6
			c-2.7,30.6-4.5,62-4.5,94.7c0,33,1.5,65.1,4.2,96.1c27.3,16.6,56.1,32.8,86.2,48.3c32,16.5,63.8,30.9,95.2,44.3
			c31-13.3,62.5-28,94-44.3c31.3-16.1,61-32.9,89.1-50.1C492.3,443.6,494.2,412.4,494.2,379.8z M484.4,234.3
			c-4.8-35.2-11.7-67.7-19.6-98.5c-33.4,9.2-68.3,20.6-104.3,34.3c20.2,9.2,40.5,18.8,60.8,29.3C443.1,210.7,464,222.4,484.4,234.3z
			 M465.1,624.6c7.8-30.1,13.8-63,18.7-97.4c-19.4,11.3-39.2,22.3-59.9,33c-21,10.8-41.9,20.7-62.8,30.2
			C396.9,603.9,431.9,615.6,465.1,624.6z M307.5,838.1c59.5,0,112.4-68.6,146.6-175.2c-47.2-12-97-28.7-147.8-49
			c-49.9,20-98.7,36.1-145.1,48.2C195.2,768.9,248,838.1,307.5,838.1z M453.9,97.5c-34.1-106.8-86.8-176-146.4-176
			c-59.7,0-112.8,69.3-147,176.6c46.5,12.1,95.3,28.7,145.1,48.7C356.6,126.2,406.5,109.7,453.9,97.5z M150.4,623.7
			c32.3-8.9,66-19.9,100.7-33c-21-9.5-42.1-19.5-63.1-30.4c-19.5-10.1-38.3-20.5-56.7-31.1C136,562.9,142.8,594,150.4,623.7z
			 M251,170.2c-34.8-13.1-68.9-24.8-101.4-33.7c-7.6,29.6-13.4,61.9-18.2,95.5c19.2-11.1,38.8-22,59.2-32.6
			C210.7,189,230.9,179.4,251,170.2z M107.3,634.4c-11.6-41.8-20.6-87.2-26.1-135.7c-45.7-29.2-86.6-59.6-122.4-90.2
			C-127,488-166.9,563-137.2,608.9C-107.3,655.2-13.7,661.6,107.3,634.4z M81.3,262.6c5.6-48.7,14-94.9,25.7-136.9
			c-122.1-27.7-216.7-21.5-246.7,25C-169.6,197-128.3,272.9-41,353.1C-5.4,322.4,35.6,291.9,81.3,262.6z M76.5,444.8
			c-1.3-21.3-2.2-42.9-2.2-65c0-21.4,0.8-42.4,2-63c-31.3,21-59.8,42.4-85.5,63.8C16.8,402,44.8,423.6,76.5,444.8z"/>
		<path d="M314.6,293.6c51.2,0,92.7,37.1,92.7,82.7c0,45.8-41.5,82.7-92.7,82.7s-92.7-37-92.7-82.7S263.5,293.6,314.6,293.6z"/>
	</g>
</g>
</svg>
