<?xml version="1.0" encoding="utf-8"?>
<!-- Generator: Adobe Illustrator 18.1.1, SVG Export Plug-In . SVG Version: 6.00 Build 0)  -->
<svg version="1.1" id="Calque_1" xmlns="http://www.w3.org/2000/svg" xmlns:xlink="http://www.w3.org/1999/xlink" x="0px" y="0px"
	 viewBox="-194 -104 1000 1000" enable-background="new -194 -104 1000 1000" xml:space="preserve">
<path d="M34.9-104c-4,0-8,2-13,5c-10,6-13,12-15,17c-2,4-3,8-3,11c-1,6-2,12-3,18c-1,13-1,29-1,47c0,37,3,84,5,132c3,48,6,96,7,133
	c1,19,2,34,2,46c0,5,1,9,1,12v1c-1,3-4,6-7,11c-6,10-14,23-24,39c-20,31-47,71-73,112c-26,40-52,80-71,112c-9,16-17,30-23,41
	c-3,6-5,11-6,17c-1,3-2,6-2,11c0,5-2,11,4,22c6,10,12,13,17,15c4,2,8,3,11,3c6,1,12,2,18,2c13,1,28,1,47,1c37,0,85-3,133-5
	c48-3,96-6,133-7c19-1,34-2,46-2c5,0,9,0,12,0h1c3,1,7,4,11,6c10,6,23,15,38,25c31,20,71,47,112,73c40,26,80,52,112,71
	c16,9,30,17,41,22c6,3,11,6,17,7c3,1,6,2,10,2c5,0,12,2,22-4c10-6,12-13,14-17c2-4,3-7,4-10c1-6,2-12,2-18c1-13,2-28,1-47
	c0-37-3-85-6-133c-3-48-5-96-7-133c-1-19-2-35-2-46c0-5,0-10,0-13v-1c1-3,3-6,6-10c6-10,15-23,25-39c20-31,46-72,73-112
	c26-40,52-80,71-112c9-16,17-30,22-41c3-6,5-11,7-17c1-3,2-6,2-11s2-11-4-22c-6-10-13-13-17-15s-7-3-10-3c-6-1-12-2-18-2
	c-13-1-28-2-47-1c-37,0-85,3-133,5c-48,3-96,6-133,8c-19,1-34,2-46,2c-5,0-9,0-12,0c0,0-1,0,0,0c0,0-2,0-1,0c-3-1-6-3-11-6
	c-10-6-23-15-38-25c-31-20-71-47-112-73c-40-26-80-52-112-71c-16-9-30-17-41-22c-6-3-11-5-17-7c-3-1-6-2-11-2
	C40.9-103,38.9-104,34.9-104 M93.9-6c28,17,61,38,96,61c40,26,80,52,112,73c16,10,29,19,40,26c5,3,10,6,14,8l-11,39
	c-41-26-157.9-105-208.9-133L93.9-6 M65.9,10l42,73c-1,58,9,197.9,10,245.9l-39-11c0-5,0-10,0-16c0-12-1-28-2-47c-2-38-4-85-7-133
	C68.9,81.9,66.9,43,65.9,10 M694.7,154.9l-73,42c-57-1-197.9,9-246.9,11l10-38c4,0,9,0,15,0c12,0,29-1,48-2c38-2,85-5,133-7
	C621.7,156.9,661.7,154.9,694.7,154.9 M709.7,181.9c-17,28-38,61-61,96c-26,40-52,80-73,112c-10,16-19,29-26,40c-3,5-6,10-8,14
	l-39-11c25-41,105-157.9,132-207.9L709.7,181.9 M307.8,334.9c34,0,61,28,61,61c0,34-27,61-61,61c-34,0-61-27-61-61c0-11,2-21,7-29
	C263.9,347.9,284.8,334.9,307.8,334.9 M72.9,348.9l38,11c-25,41-104,156.9-132,207.9l-73,42c17-28,38-61,61-96c26-40,52-80,72-112
	c10-16,19-29,25-40C66.9,356.9,69.9,352.9,72.9,348.9 M495.8,462.8l39,11c0,4,0,10,0,16c0,12,1,28,2,47c2,38,5,86,7,133
	c2,41,4,80,5,113l-42-73C508.8,651.8,497.8,510.8,495.8,462.8 M240.9,584.8l-11,39c-4,0-10-1-16,0c-12,0-28,2-47,3c-38,2-85,4-133,7
	c-41,2-80,4-113,5l73-42C51.9,596.8,192.9,585.8,240.9,584.8 M271.9,592.8c41,25,156.9,104,207.9,132l42,73c-28-17-61-38-95-60
	c-40-26-81-52-112-73c-16-10-29-20-40-26c-5-3-10-5-14-7L271.9,592.8"/>
</svg>
