<?xml version="1.0" encoding="utf-8"?>
<!-- Generator: Adobe Illustrator 17.1.0, SVG Export Plug-In . SVG Version: 6.00 Build 0)  -->
<!DOCTYPE svg PUBLIC "-//W3C//DTD SVG 1.1//EN" "http://www.w3.org/Graphics/SVG/1.1/DTD/svg11.dtd">
<svg version="1.1" id="Calque_1" xmlns="http://www.w3.org/2000/svg" xmlns:xlink="http://www.w3.org/1999/xlink" x="0px" y="0px"
	 viewBox="-487 -486 1000 1000" enable-background="new -487 -486 1000 1000" xml:space="preserve">
<g id="XMLID_1_">
	<g>
		<path d="M465.5,373.4c24.3,38.6,29,71.7,14,99.3C464.5,500.2,434,514,388,514h-750c-46,0-76.5-13.8-91.5-41.3
			c-15-27.6-10.3-60.7,14-99.3L-112-142.9v-259.8h-41.7c-11.3,0-21-4.1-29.3-12.4s-12.4-18-12.4-29.3c0-11.3,4.1-21.1,12.4-29.3
			s18-12.4,29.3-12.4h333.3c11.3,0,21,4.1,29.3,12.4s12.4,18,12.4,29.3c0,11.3-4.1,21-12.4,29.3s-18,12.4-29.3,12.4H138v259.8
			L465.5,373.4z M244.8,180.7L67.7-98.6l-13-20.2v-283.9h-83.3v283.9l-13,20.2l-177.1,279.3H244.8z"/>
	</g>
	<g>
	</g>
</g>
</svg>
