<?xml version="1.0" encoding="utf-8"?>
<!-- Generator: Adobe Illustrator 17.1.0, SVG Export Plug-In . SVG Version: 6.00 Build 0)  -->
<!DOCTYPE svg PUBLIC "-//W3C//DTD SVG 1.1//EN" "http://www.w3.org/Graphics/SVG/1.1/DTD/svg11.dtd">
<svg version="1.1" id="Calque_1" xmlns="http://www.w3.org/2000/svg" xmlns:xlink="http://www.w3.org/1999/xlink" x="0px" y="0px"
	 viewBox="-484 -484 1000 1000" enable-background="new -484 -484 1000 1000" xml:space="preserve">
<g id="XMLID_1_">
	<g>
		<path d="M297.3-328.7C417.9-328.7,516-230.6,516-110s-98.1,218.7-218.7,218.7c-26.8,0-52.9-4.9-77.6-14.3
			c-51.1,44.5-114.9,70.1-182.2,74.9L16,233.8l62.5,62.5L-109,483.8l62.5-187.5l-62.5-62.5l68-68c-54.1-10.2-104.6-34.7-146.7-71.3
			c-24.7,9.4-50.8,14.3-77.6,14.3C-385.9,108.7-484,10.6-484-110s98.1-218.7,218.7-218.7c10.4,0,20.6,0.7,30.9,2.2
			C-176-406.1-84-453.8,16-453.8c100,0,192.1,47.7,250.4,127.2C276.6-328,286.9-328.8,297.3-328.7L297.3-328.7z"/>
	</g>
	<g>
	</g>
</g>
</svg>
