<?xml version="1.0" encoding="utf-8"?>
<!-- Generator: Adobe Illustrator 18.1.1, SVG Export Plug-In . SVG Version: 6.00 Build 0)  -->
<svg version="1.1" id="Layer_12" xmlns="http://www.w3.org/2000/svg" xmlns:xlink="http://www.w3.org/1999/xlink" x="0px" y="0px"
	 viewBox="-705 -103 1000 1000" enable-background="new -705 -103 1000 1000" xml:space="preserve">
<path d="M262.1,99.7c0-17.3-15.5-31.5-32.8-31.5h-814.9c-8.3,0-15.8,3.5-21.4,8.8l-8.6-21c-6.5-16.1-24.8-23.7-40.8-17.2l-29,11.8
	c-16,6.5-23.8,24.8-17.2,40.8l53.1,130.7c5.4,13.4,19,20.8,32.7,19.2l-31.3,485.3c0,17.3,14,31.2,31.3,31.2h235.1
	c17.3,0,31.3-14,31.3-31.3l45.5-235.1h166.1c1.9,0,3.7-0.1,5.4-0.5c1.5,0.4,2.4,0.6,2.4,0.6s109.7-31.4,109.7-172.5h250.7
	c17.3,0,32.8-13.8,32.8-31.2c17.3,0,32.9-13.9,32.9-31.2V131.2C295,113.9,279.5,99.7,262.1,99.7z M-131.1,444.4
	c-0.6,0.3-1.1,0.5-1.7,0.8c-2-0.5-4.1-1-6.2-1h-157l24.3-125.4h33.8v94h47v-94h122.4C-68.4,318.9-68.4,413.1-131.1,444.4z"/>
</svg>
