<?xml version="1.0" encoding="utf-8"?>
<!-- Generator: Adobe Illustrator 18.1.1, SVG Export Plug-In . SVG Version: 6.00 Build 0)  -->
<svg version="1.1"
	 id="Capa_1" xmlns:dc="http://purl.org/dc/elements/1.1/" xmlns:inkscape="http://www.inkscape.org/namespaces/inkscape" xmlns:sodipodi="http://sodipodi.sourceforge.net/DTD/sodipodi-0.dtd" xmlns:rdf="http://www.w3.org/1999/02/22-rdf-syntax-ns#" xmlns:svg="http://www.w3.org/2000/svg" xmlns:cc="http://creativecommons.org/ns#" inkscape:export-xdpi="43" inkscape:version="0.48.4 r9939" inkscape:export-ydpi="43" inkscape:export-filename="C:\Users\Erik\Pictures\Idle.png" sodipodi:docname="Idle.svg"
	 xmlns="http://www.w3.org/2000/svg" xmlns:xlink="http://www.w3.org/1999/xlink" x="0px" y="0px" viewBox="-194 -104 1000 1000"
	 enable-background="new -194 -104 1000 1000" xml:space="preserve">
<sodipodi:namedview  inkscape:cx="50" inkscape:cy="50" guidetolerance="10" bordercolor="#666666" inkscape:zoom="2.36" pagecolor="#ffffff" borderopacity="1" objecttolerance="10" id="namedview19" showgrid="false" gridtolerance="10" inkscape:pageshadow="2" inkscape:window-y="-9" inkscape:window-height="871" inkscape:window-width="1600" inkscape:pageopacity="0" inkscape:current-layer="Capa_1" inkscape:window-maximized="1" inkscape:window-x="-9">
	</sodipodi:namedview>
<path id="path1" inkscape:connector-curvature="0" d="M13.8,626.7h163l-8.1,41.5L19.4,855.6h117.1l-7.9,40.4H-38.8l8.2-47
	l143.8-182.7H6.7C6.8,666.3,13.8,626.7,13.8,626.7z"/>
<path id="path2" inkscape:connector-curvature="0" d="M283,454.6h139l-6.9,35.4L287.8,649.8h99.9l-6.7,34.4H238.3l7-40.1
	l122.6-155.8h-90.7L283,454.6z"/>
<path id="path3" inkscape:connector-curvature="0" d="M195.8,185.6h125.4l-6.2,31.9L200.1,361.7h90.1l-6.1,31H155.3l6.3-36.1
	l110.6-140.5h-81.9C190.4,216,195.8,185.6,195.8,185.6z"/>
<path id="path4" inkscape:connector-curvature="0" d="M388.3-6.2h99.6l-5,25.3l-91.2,114.5h71.6l-4.8,24.7H356.2l5-28.7L449.1,18
	H384L388.3-6.2z"/>
<path id="path5" inkscape:connector-curvature="0" d="M570.2-104H651l-4,20.6L573,9.4h58l-3.9,20h-83l4.2-23.3l71.3-90.5h-52.8
	L570.2-104z"/>
</svg>
