<?xml version="1.0" encoding="utf-8"?>
<!-- Generator: Adobe Illustrator 18.1.1, SVG Export Plug-In . SVG Version: 6.00 Build 0)  -->
<svg version="1.1" id="Layer_1" xmlns="http://www.w3.org/2000/svg" xmlns:xlink="http://www.w3.org/1999/xlink" x="0px" y="0px"
	 viewBox="-194 -104 1000 1000" enable-background="new -194 -104 1000 1000" xml:space="preserve">
<path d="M-122,550c-39.7,0-72,32.3-72,72c0,39.7,32.3,72,72,72s72-32.3,72-72C-50,582.3-82.3,550-122,550z M-122,660.8
	c-21.3,0-38.8-17.4-38.8-38.8s17.3-38.8,38.8-38.8c21.3,0,38.8,17.4,38.8,38.8S-100.7,660.8-122,660.8z M322.7,736
	c-39.7,0-72,32.3-72,72c0,39.7,32.3,72,72,72s72-32.3,72-72C394.7,768.3,362.4,736,322.7,736z M322.7,846.8
	c-21.3,0-38.8-17.4-38.8-38.8s17.4-38.8,38.8-38.8c21.3,0,38.8,17.4,38.8,38.8S344.1,846.8,322.7,846.8z M249.1,401.4
	c-44.3,0-80.4,36.1-80.4,80.4s36.1,80.4,80.4,80.4s80.4-36.1,80.4-80.4S293.4,401.4,249.1,401.4z M249.1,496c-7.7,0-14-6.3-14-14
	c0-7.8,6.2-14,14-14c7.7,0,14,6.2,14,14C263.1,489.7,256.9,496,249.1,496z M-88.2,528.9L194.9,93.8c5-7.7,15.3-9.9,23-4.9
	c7.7,5,9.9,15.3,4.9,23L-60.3,547c-3.2,4.9-8.6,7.6-13.9,7.6c-3.1,0-6.2-0.9-9-2.7C-91,546.9-93.2,536.6-88.2,528.9z M313.2,361
	L728.4-78.4c12.6-13.3,33.7-13.9,47-1.3c13.3,12.6,13.9,33.7,1.3,47L361.6,406.7c-6.6,6.9-15.3,10.4-24.1,10.4
	c-8.2,0-16.4-3-22.9-9.1C301.2,395.4,300.7,374.3,313.2,361z M800,447.6l-386.2,318c-3.1,2.6-6.9,3.8-10.6,3.8
	c-4.8,0-9.6-2.1-12.9-6.1c-5.9-7.1-4.8-17.6,2.3-23.3l386.2-318c7.1-5.9,17.6-4.8,23.4,2.3C808,431.2,807,441.7,800,447.6z
	 M249.1,610.7c-71,0-128.8-57.8-128.8-128.8c0-28.8,9.3-56,26.9-78.8c0.1-0.1,0.1-0.1,0.2-0.2l285.7-397c5.3-7.4,15.8-9.1,23.2-3.8
	s9.1,15.8,3.8,23.2L173.9,423.2c-0.1,0.1-0.2,0.1-0.3,0.3v0.1c-13,16.9-19.9,37.1-19.9,58.4c0,52.7,42.9,95.6,95.6,95.6
	c30.4,0,58.3-14,76.6-38.3c0.3-0.4,0.8-0.7,1.1-1c0.3-0.4,0.4-0.9,0.8-1.1l356.2-334.6c6.7-6.2,17.2-5.9,23.4,0.7
	c6.3,6.7,6,17.2-0.8,23.6L350.2,561.4c-0.1,0.1-0.1,0.1-0.2,0.1C325.6,592.6,289,610.7,249.1,610.7z"/>
</svg>
