<?xml version="1.0" encoding="utf-8"?>
<!-- Generator: Adobe Illustrator 18.1.1, SVG Export Plug-In . SVG Version: 6.00 Build 0)  -->
<svg version="1.1" id="Calque_1" xmlns="http://www.w3.org/2000/svg" xmlns:xlink="http://www.w3.org/1999/xlink" x="0px" y="0px"
	 viewBox="-773 -103 1000 1000" enable-background="new -773 -103 1000 1000" xml:space="preserve">
<g id="XMLID_1_">
	<g>
		<path d="M-273-103c276.2,0,500,223.8,500,500S3.2,897-273,897s-500-223.8-500-500S-549.2-103-273-103z M133.3,397
			C133.3,172.6-48.6-9.3-273-9.3S-679.3,172.6-679.3,397S-497.4,803.3-273,803.3S133.3,621.4,133.3,397z"/>
		<path d="M-5,611.2l-80.4,48.3c-38.3-63.6-107.9-106.2-187.6-106.2s-149.3,42.6-187.6,106.2l-80.4-48.3
			c54.7-90.9,154.2-151.7,268-151.7S-59.7,520.3-5,611.2z"/>
		<path d="M-23.9,170.7c4.2,16.8-6,33.7-22.7,37.9c-17.2,4.4-37.6,11.9-55.6,20.9c10.4,11.1,16.8,26.1,16.8,42.6
			c0,34.5-28,62.5-62.5,62.5s-62.5-28-62.5-62.5c0-1.1,0-2.3,0.1-3.4c2-46.4,44.2-77.1,79.7-94.9c33.9-17,67.5-25.4,68.9-25.8
			C-45.1,143.8-28.1,153.9-23.9,170.7L-23.9,170.7z"/>
		<path d="M-335.6,268.6c0.1,1.1,0.1,2.3,0.1,3.4c0,34.5-28,62.5-62.5,62.5s-62.5-28-62.5-62.5c0-16.5,6.4-31.4,16.8-42.6
			c-18-9-38.4-16.5-55.6-20.9c-16.8-4.2-26.9-21.1-22.8-37.9h0c4.2-16.8,21.1-26.9,37.9-22.8c1.4,0.3,35,8.8,68.9,25.8
			C-379.7,191.5-337.6,222.3-335.6,268.6z"/>
	</g>
	<g>
	</g>
</g>
</svg>
