<?xml version="1.0" encoding="utf-8"?>
<!-- Generator: Adobe Illustrator 17.1.0, SVG Export Plug-In . SVG Version: 6.00 Build 0)  -->
<!DOCTYPE svg PUBLIC "-//W3C//DTD SVG 1.1//EN" "http://www.w3.org/Graphics/SVG/1.1/DTD/svg11.dtd">
<svg version="1.1" id="Calque_1" xmlns="http://www.w3.org/2000/svg" xmlns:xlink="http://www.w3.org/1999/xlink" x="0px" y="0px"
	 viewBox="-484 -484 1000 1000" enable-background="new -484 -484 1000 1000" xml:space="preserve">
<g id="XMLID_1_">
	<g>
		<path d="M442.1,289.9c10.9,3,17.4,14.3,14.4,25.2c-2.9,10.9-14.1,17.4-25.1,14.5l-23.3-6.3c-2.1,3-4.4,6-7.1,8.8
			c-2.8,2.7-5.8,5-8.7,7.1l6.3,23.3c2.9,11.1-3.7,22.3-14.6,25.2c-11,2.9-22.1-3.6-25.1-14.5l-6.2-23.5c-7.5-0.6-14.8-2.4-21.5-5.8
			L314,361.1c-8,8-20.9,7.9-28.9-0.1c-8-8-8.1-20.9-0.1-28.9l17.2-17.2c-3.3-6.8-5.2-14-5.8-21.4l-23.4-6.3
			c-10.8-3-17.4-14.2-14.5-25.2c2.9-10.9,14.3-17.5,25.2-14.5l23.3,6.3c2.1-3,4.4-5.9,7.1-8.7c2.8-2.7,5.7-5,8.8-7.2l-6.3-23.3
			c-2.8-11,3.6-22.2,14.5-25.2c11-2.9,22.2,3.6,25.2,14.5l6.3,23.6c7.4,0.6,14.6,2.4,21.4,5.6l17.2-17.1c8.1-8.1,21-8,29,0
			c8,7.9,8.1,20.9,0,29l-17.1,17.1c3.3,6.8,5.1,13.9,5.7,21.4L442.1,289.9L442.1,289.9z M372.1,303c7.9-7.9,7.9-21,0-29
			c-8-8-21.1-8-29.1,0c-8,8-7.9,21.1,0,29C351.1,311,364,311,372.1,303z"/>
		<path d="M297.3-359C417.8-359,516-260.9,516-140.3S417.8,78.5,297.3,78.5c-26.8,0-52.9-4.9-77.6-14.3C163.1,113.5,91.3,141,16,141
			c-75.2,0-147.1-27.5-203.7-76.8c-24.6,9.4-50.8,14.3-77.6,14.3C-385.8,78.5-484-19.7-484-140.3S-385.8-359-265.3-359
			c10.4,0,20.6,0.7,30.8,2.2C-176-436.3-84-484,16-484s192.1,47.7,250.4,127.2C276.6-358.3,286.9-359,297.3-359z"/>
		<path d="M152.8,382.5c16.5,9.7,22.2,30.8,12.6,47.3s-30.6,22.1-47.1,12.6l-35.5-20.5c-9.5,8.2-20.3,14.5-32.3,18.8v40.9
			c0,19.1-15.5,34.4-34.5,34.4s-34.5-15.4-34.5-34.4v-40.9c-12-4.3-22.8-10.6-32.3-18.7l-35.5,20.4c-16.5,9.5-37.6,3.9-47.1-12.6
			c-9.5-16.5-3.9-37.7,12.7-47.3l35.1-20.3c-1.2-6.1-1.9-12.3-1.9-18.8s0.7-12.7,1.9-18.8l-35.1-20.3c-16.5-9.5-22.2-30.7-12.7-47.1
			c9.5-16.6,30.6-22.2,47.2-12.7l35.4,20.5c9.5-8.1,20.3-14.5,32.3-18.8v-40.8C-18.5,186.5-3,171,16,171s34.5,15.4,34.5,34.5v40.8
			c12,4.3,22.7,10.7,32.2,18.7l35.5-20.5c16.5-9.5,37.6-3.9,47.1,12.7c9.4,16.3,3.8,37.5-12.6,47.1l-35.3,20.3
			c1.2,6.1,2,12.3,2,18.8s-0.8,12.7-1.9,18.8L152.8,382.5L152.8,382.5z M50.5,343.5c0-19-15.5-34.5-34.5-34.5s-34.5,15.4-34.5,34.5
			S-3,378,16,378S50.5,362.5,50.5,343.5z"/>
		<path d="M-226.6,199.4c2.9,11-3.6,22.2-14.4,25.2l-23.6,6.2c-0.5,7.5-2.4,14.8-5.8,21.5l17.2,17.2c8.1,8,7.9,21,0,28.9
			c-8.1,8-21,8.2-29,0.1l-17.2-17.2c-6.8,3.3-14.1,5.1-21.5,5.8l-6.3,23.4c-2.9,10.9-14.1,17.5-25.1,14.5
			c-10.9-2.9-17.4-14.2-14.5-25.2l6.2-23.3c-3-2-6-4.4-8.6-7.1c-2.8-2.7-5.2-5.7-7.2-8.8l-23.2,6.3c-11,2.8-22.2-3.6-25.2-14.5
			c-2.9-11,3.6-22.2,14.6-25.2l23.5-6.3c0.6-7.4,2.4-14.6,5.6-21.4l-17.1-17.1c-8-8-8-21,0-29c8-8,20.9-8.1,29,0l17.2,17.1
			c6.8-3.2,13.9-5,21.4-5.7l6.4-23.6c2.9-10.9,14.1-17.4,25.1-14.5c10.8,2.9,17.4,14.2,14.4,25.1l-6.2,23.3c3.1,2.1,6,4.4,8.8,7.1
			c2.7,2.8,5,5.7,7.1,8.7l23.2-6.2l-0.1,0C-240.7,182-229.5,188.5-226.6,199.4z M-311,240.5c7.9-8,8-21,0-29s-21-8-29.1,0
			c-7.9,7.9-7.9,21,0,29C-332,248.5-319,248.5-311,240.5z"/>
	</g>
	<g>
	</g>
</g>
</svg>
