<?xml version="1.0" encoding="utf-8"?>
<!-- Generator: Adobe Illustrator 17.1.0, SVG Export Plug-In . SVG Version: 6.00 Build 0)  -->
<!DOCTYPE svg PUBLIC "-//W3C//DTD SVG 1.1//EN" "http://www.w3.org/Graphics/SVG/1.1/DTD/svg11.dtd">
<svg version="1.1" id="Calque_1" xmlns="http://www.w3.org/2000/svg" xmlns:xlink="http://www.w3.org/1999/xlink" x="0px" y="0px"
	 viewBox="-489 -486 1000 1000" enable-background="new -489 -486 1000 1000" xml:space="preserve">
<g id="XMLID_1_">
	<g>
		<path d="M403.8,460.4v35.7c0,4.8-1.8,9-5.3,12.6c-3.5,3.6-7.7,5.3-12.6,5.3h-750c-4.8,0-9-1.8-12.6-5.3c-3.5-3.5-5.3-7.7-5.3-12.6
			v-35.7c0-4.8,1.8-9,5.3-12.6c3.5-3.5,7.7-5.3,12.6-5.3h750c4.8,0,9,1.8,12.6,5.3C402.1,451.4,403.9,455.6,403.8,460.4z"/>
		<path d="M261-128.8c0,29-4.6,55.8-13.7,80.4s-21,45.5-35.7,62.8c-14.7,17.3-31,33.7-48.8,49.1s-35.7,29.8-53.6,43.3
			c-17.9,13.4-34.1,26.8-48.8,40.2s-26.6,28.5-35.7,45.5C15.6,209.2,11,227.2,11,246.1c0,35.7,12.5,77.4,37.4,125l-2.3-0.6l0.6,0.6
			c-33.5-15.3-63.2-30.7-89.3-46.3c-26.1-15.6-51.8-34.2-77.3-55.8c-25.5-21.6-46.6-44.4-63.3-68.4c-16.7-24-30.2-52-40.5-84
			C-233.9,84.6-239,50.4-239,14c0-29,4.6-55.8,13.7-80.4c9.1-24.5,21-45.5,35.7-62.8c14.7-17.3,31-33.7,48.8-49.1
			s35.7-29.9,53.6-43.3c17.9-13.4,34.1-26.8,48.8-40.2s26.6-28.5,35.7-45.5S11-342,11-361c0-35-12.3-76.6-36.8-125l1.7,0.6l-0.6-0.6
			c33.5,15.3,63.2,30.7,89.3,46.3s51.8,34.2,77.3,55.8c25.5,21.6,46.6,44.4,63.3,68.3c16.7,24,30.2,52,40.5,84
			C255.9-199.5,261-165.3,261-128.8z"/>
	</g>
	<g>
	</g>
</g>
</svg>
