<?xml version="1.0" encoding="utf-8"?>
<!-- Generator: Adobe Illustrator 18.1.1, SVG Export Plug-In . SVG Version: 6.00 Build 0)  -->
<svg version="1.1" id="Your_Icon" xmlns="http://www.w3.org/2000/svg" xmlns:xlink="http://www.w3.org/1999/xlink" x="0px" y="0px"
	 viewBox="-705 -103 1000 1000" enable-background="new -705 -103 1000 1000" xml:space="preserve">
<path d="M272.2,84.6c0,0,0.6-51-35.3-78.9c-29.4-22.8-67.8-23.5-100.5-7.4c-10.4,5.1-20.3,12.5-31.6,15.2
	C85.7,18.1,69.7,2.9,53.3-4.2c-16.5-7.1-34.7-9.7-52-13.9c-17.2-4.2-37.3-8.5-55.2-7.7C-248.6-17.3-298,164.5-298,164.5
	c-10.7-2.6-21.2-6.1-31.4-10.2c-12.2-4.9-24.1-10.6-35.6-16.9c-38.9-21.1-74.6-48.5-104.9-80.7c-12.8-13.6-24.1-29.8-40.7-39
	c-18.3-10.1-40.4-14.2-61-11c-17.8,2.8-31,11.1-44.6,22.5c-10,8.3-18.1,18.5-24.6,29.6C-663.4,97.6-673,147.5-671,192
	c0.7,15.4,2.9,30.7,6,45.7c0.5,2.6,5.2,14.2,4.2,16.6c-43.6,98.5,46.6,211.2,46.6,211.2c1.7,2.1,1,10.8,1.4,13.7
	c2.3,16.3,8,31.8,15,46.7c1.7,3.6,19.4,40.2,21.5,39.5c-4,1.3-9,0.5-13.2,0.3c-16.9-0.7-33-2-49.7,1.8
	c-33.8,7.7-62.8,40.5-65.2,75.5c-3.9,58.3,18.1,87.7,125.4,134.3c107.3,46.5,237.7,44,237.7,44c530.6-27.9,552.8-547.1,552.8-547.1
	s66.6-56.2,80.4-105.8C305.5,118.6,272.2,84.6,272.2,84.6z M231.2,150c-2.6,14-12,25-21.1,35.4c-10.9,12.6-21.9,25.1-33.7,36.8
	c-8.1,8.1-16.7,17.7-26.8,23.5c0,0,12.1,292.4-251.9,447.9c-42.5,25-90.7,45.2-138.9,55.7c-42,9.1-85.6,11.4-128.5,9.6
	c-38-1.6-75.5-7.4-112.1-17.6c-27.9-7.7-55.5-17.1-82.2-28.1c-22-9-42.5-20.5-62.8-32.8c-15-9.1-22.1-28.3-10.7-42.9
	c11.4-14.5,31.5-11.9,47.6-10.2c30.8,3.3,65.3,1.5,94.6-9.3c27.9-10.3,49.5-11.3,49.5-11.3s-125.9-89.2-101.9-159.8
	c0.2-0.7-5.4-6-5.8-6.5c-5.2-6-10.3-12.1-14.9-18.5c-13.2-18.1-24.8-38-32.4-59.2c-6.7-18.8-13.5-41.6-10.4-61.7
	c1.1-7.1,3.6-13.8,7.4-19.8c0.9-1.5,12.7-14.8,12.6-15.1c0,0-29.4-73-13.2-127.4c4.2-14.1,7.5-28.5,13.8-41.9
	c5.4-11.6,15.6-30,30.4-30.6c10.8-0.4,21.2,6.8,27.9,14.6c12.2,14.2,93.6,125,284.2,158.8c0,0,2.5-185.7,193.1-202.9
	c0,0,72.7-7.3,139.5,50.5c12.3-3.3,24.5-7.6,36.4-12.2c14.6-5.6,28-13.7,42.2-20c11.9-5.3,26.5-9.3,37.5,0.3
	c13.1,11.4,8.5,29,4.1,43.4c-2.9,9.6-0.2,10.2,7.4,15C224.5,121.6,234.1,134.8,231.2,150z"/>
</svg>
