<?xml version="1.0" encoding="utf-8"?><!DOCTYPE svg PUBLIC "-//W3C//DTD SVG 1.1//EN" "http://www.w3.org/Graphics/SVG/1.1/DTD/svg11.dtd"><svg width="144" height="96" viewBox="0 0 144 96" xmlns="http://www.w3.org/2000/svg" xmlns:xlink="http://www.w3.org/1999/xlink"><svg width="24" height="24" viewBox="0 0 24 24" id="img--svg--bio" x="118" y="28"><path d="M12 9c-1.656 0-3 1.343-3 3s1.344 3 3 3 3-1.345 3-3-1.344-3-3-3zm9.23.365c-.324-.105-.617-.272-.868-.493-.404.744-.902 1.507-1.44 2.272-.834-1.073-1.787-2.156-2.85-3.22-1.055-1.054-2.142-2.01-3.226-2.853 2.577-1.815 5.054-2.908 6.817-2.908.716 0 1.264.185 1.628.55.397.395.572 1.017.54 1.805.058-.004.11-.018.17-.018.287 0 .56.058.818.147.062-1.12-.204-2.027-.82-2.644-.56-.56-1.344-.842-2.335-.842C17.62 1.16 14.85 2.38 12 4.44 9.15 2.38 6.383 1.16 4.34 1.16c-.213 0-.412.02-.605.046.273.264.48.59.61.955 1.763.003 4.238 1.096 6.813 2.91-1.086.845-2.174 1.802-3.228 2.857-1.05 1.05-2.007 2.14-2.856 3.234C4.22 9.95 3.514 8.75 3.01 7.61c-.347-.78-.578-1.494-.713-2.14-.1.013-.195.03-.297.03-.258 0-.502-.05-.736-.122.134.796.405 1.678.83 2.638.568 1.28 1.366 2.632 2.346 3.988-.98 1.354-1.775 2.705-2.343 3.985-1.21 2.727-1.24 4.86-.09 6.01.558.56 1.343.843 2.334.843 3.02 0 7.627-2.656 11.736-6.767 1.053-1.054 2.01-2.146 2.86-3.243 2.77 3.914 3.563 7.25 2.354 8.46-.364.363-.912.548-1.628.548-.943 0-2.095-.318-3.354-.887-.133.32-.33.605-.575.843 1.458.675 2.804 1.045 3.93 1.045.99 0 1.775-.283 2.334-.842 1.738-1.738.64-5.73-2.45-10.01.636-.882 1.216-1.762 1.684-2.62zM4.34 21.84c-.715 0-1.263-.185-1.627-.55-.825-.824-.717-2.61.298-4.897.506-1.14 1.21-2.34 2.063-3.55.85 1.093 1.805 2.182 2.854 3.23 1.06 1.06 2.154 2 3.246 2.846-2.583 1.823-5.067 2.92-6.832 2.92zm11.03-6.474c-1.095 1.094-2.233 2.082-3.365 2.942-1.135-.862-2.274-1.847-3.37-2.942-1.095-1.094-2.08-2.23-2.944-3.364.865-1.137 1.853-2.273 2.947-3.368C9.73 7.54 10.87 6.552 12.002 5.69c1.132.86 2.27 1.85 3.363 2.942 1.136 1.136 2.114 2.265 2.952 3.36-.864 1.14-1.85 2.277-2.948 3.374zM22 6c-.553 0-1 .446-1 1s.447 1 1 1 1-.448 1-1-.447-1-1-1zm-8 13c-.553 0-1 .446-1 1s.447 1 1 1 1-.448 1-1-.447-1-1-1zM2 4c.553 0 1-.448 1-1s-.447-1-1-1-1 .446-1 1 .447 1 1 1z" fill="#444"/></svg><svg width="32" height="32" viewBox="0 0 32 32" id="img--svg--bioga"><path d="M24.687 16.037c2.293 2.473 3.32 4.906 2.43 6.466-.89 1.556-3.482 1.877-6.74 1.114-.974 3.26-2.553 5.387-4.34 5.387-1.79 0-3.367-2.135-4.34-5.403-3.293.786-5.916.47-6.812-1.097-.89-1.56.137-3.996 2.43-6.472-2.337-2.495-3.39-4.96-2.49-6.53.9-1.577 3.548-1.888 6.864-1.088.973-3.275 2.557-5.416 4.348-5.416 1.79 0 3.37 2.134 4.342 5.4 3.285-.78 5.904-.463 6.8 1.103.895 1.572-.158 4.038-2.493 6.537zM5.752 10.04c-.688 1.205.26 3.18 2.27 5.266.82-.8 1.762-1.592 2.812-2.354.128-1.266.323-2.467.59-3.56-2.807-.72-4.98-.56-5.672.65zm4.97 4.32c-.72.55-1.378 1.105-1.967 1.66.597.558 1.24 1.118 1.97 1.67-.03-.555-.05-1.116-.05-1.69 0-.556.017-1.102.046-1.64zm.11 4.734c-1.05-.76-1.99-1.55-2.812-2.346-1.973 2.068-2.89 4.02-2.207 5.213.687 1.202 2.838 1.37 5.62.663-.267-1.087-.473-2.27-.6-3.53zm9.257.74c-.447.294-.903.582-1.378.86-.482.28-.964.538-1.444.784.823.35 1.628.655 2.392.89.18-.785.318-1.64.43-2.533zm-4.054 8.086c1.37 0 2.584-1.785 3.37-4.557-1.085-.312-2.23-.746-3.4-1.274-1.146.52-2.268.94-3.336 1.252.784 2.78 1.997 4.578 3.366 4.578zm-3.613-5.578c.742-.23 1.518-.518 2.316-.858-.483-.247-.968-.508-1.452-.79-.45-.263-.88-.533-1.304-.81.11.877.264 1.686.44 2.458zm-.437-10.186c.44-.29.893-.573 1.362-.848.463-.27.926-.52 1.388-.758-.8-.342-1.585-.644-2.33-.877-.175.77-.31 1.61-.42 2.483zm4.05-8.076c-1.373 0-2.594 1.802-3.38 4.594 1.068.314 2.192.745 3.337 1.267 1.172-.536 2.318-.965 3.41-1.283-.785-2.777-1.997-4.577-3.367-4.577zm3.615 5.575c-.767.24-1.57.535-2.397.89.465.24.932.49 1.398.764.503.292.983.597 1.452.907-.11-.915-.27-1.76-.45-2.562zm.59 3.95c-.67-.467-1.378-.922-2.126-1.357-.716-.418-1.426-.783-2.128-1.124-.693.338-1.396.713-2.1 1.124-.714.415-1.395.85-2.036 1.29-.062.798-.104 1.614-.104 2.463 0 .86.035 1.694.097 2.5.627.43 1.29.852 1.98 1.256.737.43 1.467.804 2.19 1.152.712-.346 1.436-.73 2.16-1.152.72-.42 1.403-.855 2.05-1.302.06-.794.104-1.607.104-2.453 0-.82-.03-1.622-.087-2.396zm5.947 8.356c.682-1.19-.242-3.14-2.21-5.202-.802.774-1.72 1.542-2.737 2.28-.128 1.283-.326 2.5-.598 3.605 2.746.685 4.865.508 5.545-.682zm-4.834-4.33c.69-.526 1.32-1.06 1.89-1.59-.57-.54-1.188-1.084-1.886-1.62.025.52.043 1.045.043 1.58 0 .554-.02 1.096-.047 1.63zm4.894-7.59c-.686-1.198-2.83-1.368-5.605-.665.273 1.118.484 2.34.61 3.64 1.02.746 1.93 1.52 2.728 2.3 2.013-2.09 2.957-4.068 2.267-5.274zM16.2 18.063c-1.177 0-2.13-.963-2.13-2.152s.953-2.152 2.13-2.152c1.176 0 2.13.964 2.13 2.152 0 1.19-.954 2.152-2.13 2.152z" fill="#444"/></svg><svg width="32" height="32" viewBox="0 0 32 32" id="img--svg--biora" x="64" y="32"><path d="M27.888 16.01c1.252-1.39 2.15-2.757 2.672-4.07.604-1.526.582-2.85-.064-3.935-.65-1.087-1.838-1.768-3.53-2.023-1.454-.22-3.14-.163-5.03.17-.626-1.735-1.413-3.163-2.34-4.25C18.513.64 17.3 0 15.992 0 14.68 0 13.47.642 12.39 1.913c-.93 1.092-1.71 2.52-2.324 4.252-1.89-.344-3.576-.404-5.03-.185-1.692.257-2.88.938-3.53 2.026-.647 1.085-.67 2.408-.065 3.933.52 1.31 1.423 2.677 2.686 4.068-1.262 1.394-2.16 2.76-2.675 4.064-.6 1.52-.573 2.84.075 3.922.647 1.087 1.832 1.77 3.52 2.032 1.447.226 3.132.168 5.022-.175.624 1.73 1.406 3.157 2.33 4.246C13.47 31.36 14.68 32 15.993 32c1.31 0 2.52-.64 3.602-1.903.927-1.085 1.713-2.516 2.34-4.258 1.89.36 3.57.428 5.013.203 1.68-.26 2.866-.942 3.53-2.032.648-1.084.67-2.407.064-3.933-.52-1.307-1.41-2.674-2.654-4.067zM13.844 28.804c-.675-.86-1.257-2.013-1.733-3.425 1.313-.358 2.62-.812 3.898-1.355 1.282.55 2.588 1.004 3.896 1.354-.484 1.408-1.073 2.558-1.755 3.42-1.394 1.768-2.923 1.768-4.306.004zm4.304-25.6c.68.87 1.27 2.023 1.755 3.433-1.22.33-2.524.778-3.895 1.342-1.33-.543-2.644-1-3.913-1.363.484-1.396 1.07-2.543 1.75-3.412 1.384-1.775 2.91-1.775 4.303 0zm5.337 11.6c.533.418 1.02.823 1.455 1.212-.296.273-.605.544-.924.806l-.53.433c.016-.44.023-.862.023-1.262 0-.365-.008-.763-.025-1.19zm-.216-2.785c-.158-1.374-.407-2.69-.742-3.928 1.518-.3 2.855-.387 3.98-.26 1.146.13 1.915.504 2.282 1.108.375.63.334 1.433-.127 2.457-.445.994-1.194 2.056-2.23 3.162-.98-.897-2.04-1.75-3.164-2.54zm-7.26 9.716c-.902-.4-1.798-.852-2.664-1.342-.988-.566-1.833-1.084-2.516-1.54-.075-.833-.113-1.795-.113-2.862 0-1.066.038-2.02.112-2.844.74-.483 1.595-1.002 2.54-1.536.85-.462 1.735-.907 2.638-1.325.9.422 1.787.866 2.63 1.317.885.51 1.74 1.023 2.55 1.534.075.84.112 1.798.112 2.854 0 1.067-.037 2.034-.112 2.877-.75.49-1.6 1.003-2.532 1.525-.837.48-1.725.93-2.647 1.34zm3.726-11.938c-.332-.187-.702-.385-1.106-.595.64-.233 1.258-.438 1.847-.612.145.61.27 1.226.373 1.845-.356-.213-.728-.426-1.114-.637zm-8.2-1.202c.6.182 1.21.386 1.822.61-.38.192-.744.39-1.09.59-.387.212-.76.424-1.112.636.108-.625.235-1.24.38-1.836zM8.534 17.24c-.538-.414-1.03-.825-1.474-1.23.45-.407.94-.812 1.467-1.212-.013.39-.02.786-.02 1.193.002.432.01.85.026 1.25zm.945-9.178c-.335 1.274-.58 2.59-.73 3.924-1.16.826-2.226 1.69-3.18 2.57-1.036-1.103-1.788-2.165-2.24-3.162-.463-1.02-.502-1.822-.117-2.45.376-.617 1.123-.983 2.286-1.12.352-.04.728-.062 1.117-.062.86 0 1.82.1 2.865.3zM3.338 20.62c.447-.998 1.19-2.06 2.214-3.16.964.894 2.036 1.762 3.196 2.587.15 1.33.394 2.63.728 3.878-1.516.298-2.852.386-3.974.26-1.154-.13-1.898-.498-2.277-1.133-.383-.615-.346-1.41.113-2.433zm8.897 1.575c.348.207.726.413 1.13.62-.632.232-1.247.434-1.838.602-.145-.606-.267-1.215-.366-1.82.36.212.72.413 1.075.598zm8.243 1.224c-.596-.17-1.212-.37-1.845-.604.36-.185.74-.39 1.136-.612.367-.204.728-.41 1.076-.612-.11.652-.234 1.262-.368 1.827zm2.042.508c.327-1.25.572-2.557.73-3.896 1.154-.82 2.22-1.682 3.18-2.57 1.024 1.113 1.77 2.18 2.216 3.174.46 1.024.5 1.82.127 2.438-.37.61-1.135.986-2.276 1.12-.335.04-.693.06-1.064.06-.87 0-1.848-.11-2.913-.326z" fill="#444"/></svg><svg width="32" height="32" viewBox="0 0 32 32" id="img--svg--blizzaga" y="32"><path d="M20.378 27.73l-1.125-.648c.034-.195.06-.394.06-.602s-.026-.406-.063-.602l1.128-.65c.526-.307.706-.983.404-1.506-.305-.53-.98-.71-1.508-.406l-1.137.656c-.305-.26-.648-.462-1.03-.6v-1.306c0-.61-.497-1.105-1.106-1.105s-1.103.496-1.103 1.106v1.305c-.383.138-.728.343-1.033.603l-1.134-.656c-.53-.305-1.206-.125-1.51.405-.305.526-.12 1.203.406 1.508l1.122.648c-.037.197-.06.396-.06.603s.023.407.06.603l-1.122.648c-.53.306-.71.985-.406 1.513s.98.707 1.508.402l1.135-.652c.305.258.65.46 1.034.598v1.31c0 .61.495 1.102 1.104 1.102s1.106-.492 1.106-1.102v-1.31c.383-.136.73-.34 1.033-.6l1.134.655c.53.305 1.203.125 1.508-.402s.125-1.203-.404-1.512zM16 27.586c-.61 0-1.105-.496-1.105-1.105S15.39 25.38 16 25.38s1.104.494 1.104 1.103-.495 1.106-1.104 1.106zm13.635-2.82l-.755-.2c-.018-.24-.076-.468-.18-.687l.547-.55c.258-.257.256-.673 0-.927-.255-.256-.67-.258-.927 0l-.55.547c-.215-.102-.446-.16-.684-.18l-.2-.754c-.095-.35-.454-.56-.806-.465-.35.096-.555.455-.464.806l.2.744c-.098.068-.192.143-.28.23-.086.088-.16.18-.227.278l-.745-.2c-.35-.095-.712.116-.806.464-.095.352.116.71.463.805l.75.202c.02.235.08.465.186.684l-.552.55c-.255.257-.254.672.003.927.256.256.67.26.925.004l.552-.552c.216.107.448.167.688.185l.198.75c.096.35.453.56.805.466.35-.094.56-.453.466-.807l-.2-.744c.093-.066.19-.14.278-.227.086-.087.16-.184.227-.28l.744.2c.35.095.71-.115.803-.463.094-.35-.113-.708-.462-.805zm-2.24.418c-.258.258-.673.256-.93 0-.254-.254-.256-.67 0-.928.256-.255.673-.255.93 0 .254.256.254.674 0 .928zm-19.96-3.778l-.743.2c-.07-.095-.14-.19-.228-.278-.088-.086-.182-.16-.28-.227l.2-.745c.093-.35-.116-.71-.462-.803-.352-.094-.71.115-.805.464l-.203.754c-.238.02-.466.078-.684.18l-.55-.547c-.26-.258-.673-.256-.928 0-.256.256-.256.672 0 .928l.548.55c-.103.218-.163.448-.18.685l-.754.2c-.352.097-.56.454-.466.806.095.35.454.556.806.465l.742-.202c.066.1.14.194.23.28.087.087.18.164.278.228l-.2.745c-.093.352.116.714.464.807.352.094.708-.115.802-.465l.203-.75c.238-.02.47-.08.688-.184l.55.55c.254.257.668.252.926-.004.253-.255.257-.67 0-.927l-.552-.55c.106-.217.168-.45.184-.69l.754-.198c.348-.095.556-.453.462-.805-.094-.348-.453-.556-.806-.465zm-1.9 1.78c-.256.255-.672.255-.93 0-.254-.256-.254-.674 0-.928.258-.255.673-.255.93 0s.254.672 0 .927zM32 11c0-3.86-3.14-7-7-7-.332 0-.66.023-.987.07C22.146 1.526 19.2 0 16 0S9.855 1.526 7.987 4.07C7.66 4.023 7.332 4 7 4c-3.86 0-7 3.14-7 7s3.14 7 7 7c.856 0 1.693-.156 2.482-.458C11.292 19.12 13.594 20 16 20c2.41 0 4.708-.88 6.518-2.458.79.302 1.626.458 2.482.458 3.86 0 7-3.14 7-7z" fill="#444"/></svg><svg width="32" height="32" viewBox="0 0 32 32" id="img--svg--blizzard" x="32" y="32"><path d="M20.378 27.73l-1.125-.648c.034-.195.06-.394.06-.602s-.026-.406-.063-.602l1.128-.65c.526-.307.706-.983.404-1.506-.305-.53-.98-.71-1.508-.406l-1.137.656c-.305-.26-.648-.462-1.03-.6v-1.306c0-.61-.497-1.105-1.106-1.105s-1.103.496-1.103 1.106v1.305c-.383.138-.728.343-1.033.603l-1.134-.656c-.53-.305-1.206-.125-1.51.405-.305.526-.12 1.203.406 1.508l1.122.648c-.037.197-.06.396-.06.603s.023.407.06.603l-1.122.648c-.53.306-.71.985-.406 1.513s.98.707 1.508.402l1.135-.652c.305.258.65.46 1.034.598v1.31c0 .61.495 1.102 1.104 1.102s1.106-.492 1.106-1.102v-1.31c.383-.136.73-.34 1.033-.6l1.134.655c.53.305 1.203.125 1.508-.402s.125-1.203-.404-1.512zM16 27.586c-.61 0-1.105-.496-1.105-1.105S15.39 25.38 16 25.38s1.104.494 1.104 1.103-.495 1.106-1.104 1.106zM25 4c-.332 0-.66.023-.987.07C22.146 1.526 19.2 0 16 0S9.855 1.526 7.987 4.07C7.66 4.023 7.332 4 7 4c-3.86 0-7 3.14-7 7s3.14 7 7 7c.856 0 1.693-.156 2.482-.458C11.292 19.12 13.594 20 16 20c2.41 0 4.708-.88 6.518-2.458.79.302 1.626.458 2.482.458 3.86 0 7-3.14 7-7s-3.14-7-7-7zm0 12c-1.07 0-2.057-.344-2.87-.917C20.66 16.85 18.476 18 16 18s-4.662-1.148-6.13-2.917C9.06 15.656 8.07 16 7 16c-2.762 0-5-2.238-5-5s2.238-5 5-5c.676 0 1.316.138 1.902.38C10.23 3.792 12.892 2 16 2s5.77 1.792 7.096 4.38C23.683 6.138 24.326 6 25 6c2.762 0 5 2.238 5 5s-2.238 5-5 5z" fill="#444"/></svg><svg width="32" height="32" viewBox="0 0 32 32" id="img--svg--blizzarza" x="64"><path d="M20.378 27.73l-1.125-.648c.034-.195.06-.394.06-.602s-.026-.406-.062-.602l1.13-.65c.525-.307.705-.983.403-1.506-.305-.53-.98-.71-1.508-.406l-1.137.656c-.305-.26-.648-.462-1.03-.6v-1.306c0-.61-.497-1.105-1.106-1.105s-1.104.496-1.104 1.106v1.305c-.383.138-.728.343-1.033.603l-1.134-.656c-.53-.305-1.205-.125-1.51.405-.304.526-.12 1.203.407 1.508l1.122.648c-.038.197-.06.396-.06.603s.022.407.06.603l-1.123.648c-.53.306-.71.985-.406 1.513s.98.707 1.51.402l1.134-.652c.305.258.65.46 1.034.598v1.31c0 .61.495 1.102 1.104 1.102s1.106-.492 1.106-1.102v-1.31c.383-.136.73-.34 1.033-.6l1.136.655c.53.305 1.203.125 1.508-.402s.125-1.203-.404-1.512zM16 27.586c-.61 0-1.105-.496-1.105-1.105S15.39 25.38 16 25.38s1.104.494 1.104 1.103-.495 1.106-1.104 1.106zM25 4c-.332 0-.66.023-.987.07C22.146 1.526 19.2 0 16 0S9.855 1.526 7.987 4.07C7.66 4.023 7.332 4 7 4c-3.86 0-7 3.14-7 7s3.14 7 7 7c.856 0 1.693-.156 2.482-.458C11.292 19.12 13.594 20 16 20c2.41 0 4.708-.88 6.518-2.458.79.302 1.626.458 2.482.458 3.86 0 7-3.14 7-7s-3.14-7-7-7z" fill="#444"/></svg><svg width="26" height="28" viewBox="0 0 26 28" id="img--svg--cure" x="118"><path d="M23.86 22.625q.874 1.39.335 2.383T22 26H4q-1.656 0-2.195-.992t.336-2.383L10 10.235V4H9q-.406 0-.703-.297T8 3t.297-.703T9 2h8q.406 0 .703.297T18 3t-.297.703T17 4h-1v6.234zM11.687 11.297L7.438 18h11.125l-4.25-6.703-.313-.484V4h-2v6.813z" fill="#444"/></svg><svg width="32" height="32" viewBox="0 0 32 32" id="img--svg--fira" y="64"><path d="M10.03 32c-2.132-4.438-.996-6.98.643-9.376 1.795-2.624 2.258-5.22 2.258-5.22s1.412 1.833.848 4.702c2.493-2.775 2.963-7.196 2.587-8.89C22 17.157 24.408 25.682 21.163 32 38.425 22.233 25.457 7.62 23.2 5.973c.752 1.646.894 4.433-.626 5.785C20 1.998 13.637-.002 13.637-.002c.753 5.034-2.728 10.537-6.084 14.65-.118-2.008-.243-3.393-1.298-5.313-.237 3.646-3.023 6.617-3.777 10.27-1.022 4.946.765 8.568 7.555 12.394z" fill="#444"/></svg><svg width="32" height="32" viewBox="0 0 32 32" id="img--svg--firaga" x="32" y="64"><path d="M13.53 1.406c1.564 4.188.75 6.47-1 8.28-1.905 2-4.874 3.5-6.968 6.44-2.78 3.905-3.25 12.5 6.78 14.75-4.218-2.22-5.124-8.657-.562-12.69-1.188 3.907 1 6.407 3.72 5.5 2.655-.905 4.405 1 4.343 3.19-.03 1.5-.625 2.78-2.156 3.5 6.53-1.157 9.156-6.564 9.156-10.69 0-5.437-4.844-6.187-2.406-10.75-2.906.25-3.906 2.157-3.625 5.282.188 2.063-1.97 3.47-3.563 2.53-1.282-.78-1.25-2.28-.126-3.405C19.53 10.968 20.468 5.5 13.53 1.405z" fill="#444"/></svg><svg width="22" height="28" viewBox="0 0 22 28" id="img--svg--fire" x="96"><path d="M22 26.5v1q0 .203-.148.352T21.5 28H.5q-.203 0-.352-.148T0 27.5v-1q0-.203.148-.352T.5 26h21q.203 0 .352.148T22 26.5zM18 10q0 1.22-.383 2.25t-1 1.758-1.367 1.375-1.5 1.21-1.367 1.126-1 1.272T11 20.5q0 1.5 1.047 3.5l-.063-.016L12 24q-1.406-.64-2.5-1.297T7.336 21.14t-1.773-1.914-1.133-2.352T4 14q0-1.22.383-2.25t1-1.76T6.75 8.617t1.5-1.21T9.617 6.28t1-1.273T11 3.5Q11 2.03 9.97 0l.046.015L10 0q1.406.64 2.5 1.296t2.164 1.563 1.773 1.913 1.133 2.352T18 10z" fill="#444"/></svg><svg width="32" height="32" viewBox="0 0 32 32" id="img--svg--thundaga" x="64" y="64"><path d="M25 4c-.332 0-.66.023-.987.07C22.146 1.526 19.2 0 16 0S9.855 1.526 7.987 4.07C7.66 4.023 7.332 4 7 4c-3.86 0-7 3.14-7 7s3.14 7 7 7c.856 0 1.693-.156 2.482-.458 1.346 1.173 2.963 1.956 4.694 2.283L12 22l2 2-2 6 6-6-2-2 .688-2.06c2.154-.153 4.195-.972 5.83-2.397.79.302 1.627.458 2.483.458 3.86 0 7-3.14 7-7s-3.14-7-7-7z" fill="#444"/></svg><svg width="32" height="32" viewBox="0 0 32 32" id="img--svg--thundara" x="32"><path d="M32 0L8 16l6 4L0 32l24-12-6-4z" fill="#444"/></svg><svg width="24" height="24" viewBox="0 0 24 24" id="img--svg--thunder" x="118" y="52"><path d="M16.61 11.585l-4.332-.93 2-9.306-6.887 10.3 3.49.75-2.2 10.25 7.93-11.065z" fill="#444"/></svg></svg>